<svg xmlns="http://www.w3.org/2000/svg" xmlns:xlink="http://www.w3.org/1999/xlink" width="500" zoomAndPan="magnify" viewBox="0 0 375 60" height="80" preserveAspectRatio="xMidYMid meet" version="1.0"><defs><g/></defs><g fill="#a44ffc" fill-opacity="1"><g transform="translate(58.181685, 47.44623)"><g><path d="M 36.625 -21.125 L 36.625 -2.078125 C 33.644531 -1.097656 30.816406 -0.382812 28.140625 0.0625 C 25.460938 0.507812 23.210938 0.734375 21.390625 0.734375 C 15.328125 0.734375 10.578125 -0.84375 7.140625 -4 C 3.710938 -7.164062 2 -12.023438 2 -18.578125 C 2 -25.265625 3.800781 -30.265625 7.40625 -33.578125 C 11.019531 -36.898438 16.101562 -38.5625 22.65625 -38.5625 C 26.09375 -38.5625 30.21875 -38.050781 35.03125 -37.03125 C 35.03125 -36.132812 34.9375 -34.804688 34.75 -33.046875 C 34.570312 -31.285156 34.394531 -30.050781 34.21875 -29.34375 L 31.8125 -29.40625 C 28.875 -29.5 26.582031 -29.546875 24.9375 -29.546875 C 19.988281 -29.546875 17.289062 -29.253906 16.84375 -28.671875 C 16.132812 -27.828125 15.632812 -26.515625 15.34375 -24.734375 C 15.050781 -22.953125 14.90625 -21.234375 14.90625 -19.578125 C 14.90625 -16.597656 15.238281 -14.28125 15.90625 -12.625 C 16.570312 -10.976562 17.597656 -9.820312 18.984375 -9.15625 C 20.367188 -8.488281 22.238281 -8.15625 24.59375 -8.15625 L 24.859375 -8.15625 L 24.859375 -21.125 Z M 36.625 -21.125 "/></g></g></g><g fill="#a44ffc" fill-opacity="1"><g transform="translate(97.149525, 47.44623)"><g><path d="M 21.390625 -8.015625 C 22.503906 -8.015625 24.578125 -8.128906 27.609375 -8.359375 C 28.003906 -8.359375 28.738281 -8.398438 29.8125 -8.484375 L 30.8125 -1.609375 C 27.382812 -0.00390625 22.929688 0.796875 17.453125 0.796875 C 12.328125 0.796875 8.390625 -0.492188 5.640625 -3.078125 C 2.898438 -5.660156 1.53125 -9.554688 1.53125 -14.765625 C 1.53125 -17.441406 1.875 -20.023438 2.5625 -22.515625 C 3.257812 -25.015625 4.054688 -26.753906 4.953125 -27.734375 C 5.878906 -28.710938 7.613281 -29.554688 10.15625 -30.265625 C 12.695312 -30.984375 15.21875 -31.34375 17.71875 -31.34375 C 21.726562 -31.34375 24.734375 -30.628906 26.734375 -29.203125 C 28.742188 -27.785156 30.054688 -25.816406 30.671875 -23.296875 C 31.296875 -20.773438 31.609375 -17.398438 31.609375 -13.171875 C 28.585938 -12.992188 25.628906 -12.90625 22.734375 -12.90625 L 13.234375 -12.90625 C 13.234375 -11.476562 13.535156 -10.40625 14.140625 -9.6875 C 14.742188 -8.976562 15.597656 -8.519531 16.703125 -8.3125 C 17.816406 -8.113281 19.378906 -8.015625 21.390625 -8.015625 Z M 13.90625 -23.390625 C 13.632812 -23.253906 13.429688 -22.675781 13.296875 -21.65625 C 13.160156 -20.632812 13.070312 -19.476562 13.03125 -18.1875 L 16.515625 -18.1875 C 18.609375 -18.1875 20.125 -18.207031 21.0625 -18.25 C 21.0625 -20.382812 20.757812 -21.894531 20.15625 -22.78125 C 19.550781 -23.675781 18.515625 -24.125 17.046875 -24.125 C 15.835938 -24.125 14.789062 -23.878906 13.90625 -23.390625 Z M 13.90625 -23.390625 "/></g></g></g><g fill="#a44ffc" fill-opacity="1"><g transform="translate(130.034906, 47.44623)"><g><path d="M 21.390625 -8.015625 C 22.503906 -8.015625 24.578125 -8.128906 27.609375 -8.359375 C 28.003906 -8.359375 28.738281 -8.398438 29.8125 -8.484375 L 30.8125 -1.609375 C 27.382812 -0.00390625 22.929688 0.796875 17.453125 0.796875 C 12.328125 0.796875 8.390625 -0.492188 5.640625 -3.078125 C 2.898438 -5.660156 1.53125 -9.554688 1.53125 -14.765625 C 1.53125 -17.441406 1.875 -20.023438 2.5625 -22.515625 C 3.257812 -25.015625 4.054688 -26.753906 4.953125 -27.734375 C 5.878906 -28.710938 7.613281 -29.554688 10.15625 -30.265625 C 12.695312 -30.984375 15.21875 -31.34375 17.71875 -31.34375 C 21.726562 -31.34375 24.734375 -30.628906 26.734375 -29.203125 C 28.742188 -27.785156 30.054688 -25.816406 30.671875 -23.296875 C 31.296875 -20.773438 31.609375 -17.398438 31.609375 -13.171875 C 28.585938 -12.992188 25.628906 -12.90625 22.734375 -12.90625 L 13.234375 -12.90625 C 13.234375 -11.476562 13.535156 -10.40625 14.140625 -9.6875 C 14.742188 -8.976562 15.597656 -8.519531 16.703125 -8.3125 C 17.816406 -8.113281 19.378906 -8.015625 21.390625 -8.015625 Z M 13.90625 -23.390625 C 13.632812 -23.253906 13.429688 -22.675781 13.296875 -21.65625 C 13.160156 -20.632812 13.070312 -19.476562 13.03125 -18.1875 L 16.515625 -18.1875 C 18.609375 -18.1875 20.125 -18.207031 21.0625 -18.25 C 21.0625 -20.382812 20.757812 -21.894531 20.15625 -22.78125 C 19.550781 -23.675781 18.515625 -24.125 17.046875 -24.125 C 15.835938 -24.125 14.789062 -23.878906 13.90625 -23.390625 Z M 13.90625 -23.390625 "/></g></g></g><g fill="#a44ffc" fill-opacity="1"><g transform="translate(162.920287, 47.44623)"><g><path d="M 35.421875 0 L 23 0 L 16.640625 -12.5 C 16.015625 -13.789062 15.191406 -14.613281 14.171875 -14.96875 L 14.171875 0 L 2.734375 0 L 2.734375 -40.109375 L 14.171875 -40.578125 L 14.171875 -17.78125 C 15.242188 -18.226562 16.15625 -19.140625 16.90625 -20.515625 L 22.59375 -30.75 L 35.09375 -30.8125 L 28.609375 -20.390625 C 27.585938 -18.742188 26.472656 -17.425781 25.265625 -16.4375 C 26.285156 -15.320312 27.445312 -13.628906 28.75 -11.359375 Z M 35.421875 0 "/></g></g></g><g fill="#a44ffc" fill-opacity="1"><g transform="translate(198.011388, 47.44623)"><g><path d="M 27.609375 -10.421875 C 27.609375 -6.460938 26.347656 -3.613281 23.828125 -1.875 C 21.304688 -0.132812 17.726562 0.734375 13.09375 0.734375 C 9.84375 0.734375 6.101562 0.265625 1.875 -0.671875 C 1.957031 -1.554688 2.164062 -2.832031 2.5 -4.5 C 2.84375 -6.175781 3.125 -7.460938 3.34375 -8.359375 C 4.945312 -8.085938 6.726562 -7.875 8.6875 -7.71875 C 10.644531 -7.5625 12.316406 -7.484375 13.703125 -7.484375 C 14.898438 -7.484375 15.632812 -7.550781 15.90625 -7.6875 C 15.945312 -7.726562 16 -7.847656 16.0625 -8.046875 C 16.132812 -8.253906 16.171875 -8.46875 16.171875 -8.6875 C 16.171875 -9.582031 15.613281 -10.1875 14.5 -10.5 C 14.144531 -10.582031 12.785156 -10.957031 10.421875 -11.625 C 8.066406 -12.300781 6.140625 -13.519531 4.640625 -15.28125 C 3.148438 -17.039062 2.40625 -19.234375 2.40625 -21.859375 C 2.40625 -23.242188 2.71875 -24.78125 3.34375 -26.46875 C 3.96875 -28.164062 4.632812 -29.234375 5.34375 -29.671875 C 5.882812 -30.035156 7.175781 -30.40625 9.21875 -30.78125 C 11.269531 -31.15625 13.164062 -31.34375 14.90625 -31.34375 C 18.601562 -31.34375 22.320312 -31.078125 26.0625 -30.546875 C 26.0625 -29.742188 25.953125 -28.394531 25.734375 -26.5 C 25.515625 -24.601562 25.316406 -23.410156 25.140625 -22.921875 C 21.347656 -23.410156 18.289062 -23.65625 15.96875 -23.65625 C 14.769531 -23.65625 13.992188 -23.59375 13.640625 -23.46875 C 13.546875 -23.414062 13.453125 -23.289062 13.359375 -23.09375 C 13.273438 -22.894531 13.234375 -22.640625 13.234375 -22.328125 C 13.234375 -21.703125 13.4375 -21.253906 13.84375 -20.984375 C 14.238281 -20.671875 15.285156 -20.296875 16.984375 -19.859375 C 18.984375 -19.273438 20.707031 -18.671875 22.15625 -18.046875 C 23.601562 -17.421875 24.875 -16.484375 25.96875 -15.234375 C 27.0625 -13.992188 27.609375 -12.390625 27.609375 -10.421875 Z M 27.609375 -10.421875 "/></g></g></g><g fill="#a44ffc" fill-opacity="1"><g transform="translate(226.685836, 47.44623)"><g><path d="M 36.625 -21.125 L 36.625 -2.078125 C 33.644531 -1.097656 30.816406 -0.382812 28.140625 0.0625 C 25.460938 0.507812 23.210938 0.734375 21.390625 0.734375 C 15.328125 0.734375 10.578125 -0.84375 7.140625 -4 C 3.710938 -7.164062 2 -12.023438 2 -18.578125 C 2 -25.265625 3.800781 -30.265625 7.40625 -33.578125 C 11.019531 -36.898438 16.101562 -38.5625 22.65625 -38.5625 C 26.09375 -38.5625 30.21875 -38.050781 35.03125 -37.03125 C 35.03125 -36.132812 34.9375 -34.804688 34.75 -33.046875 C 34.570312 -31.285156 34.394531 -30.050781 34.21875 -29.34375 L 31.8125 -29.40625 C 28.875 -29.5 26.582031 -29.546875 24.9375 -29.546875 C 19.988281 -29.546875 17.289062 -29.253906 16.84375 -28.671875 C 16.132812 -27.828125 15.632812 -26.515625 15.34375 -24.734375 C 15.050781 -22.953125 14.90625 -21.234375 14.90625 -19.578125 C 14.90625 -16.597656 15.238281 -14.28125 15.90625 -12.625 C 16.570312 -10.976562 17.597656 -9.820312 18.984375 -9.15625 C 20.367188 -8.488281 22.238281 -8.15625 24.59375 -8.15625 L 24.859375 -8.15625 L 24.859375 -21.125 Z M 36.625 -21.125 "/></g></g></g><g fill="#a44ffc" fill-opacity="1"><g transform="translate(265.653676, 47.44623)"><g><path d="M 17.578125 0.875 C 12.234375 0.875 8.234375 -0.382812 5.578125 -2.90625 C 2.929688 -5.425781 1.609375 -9.40625 1.609375 -14.84375 C 1.609375 -17.820312 1.882812 -20.4375 2.4375 -22.6875 C 3 -24.9375 3.679688 -26.507812 4.484375 -27.40625 C 5.503906 -28.5625 7.382812 -29.519531 10.125 -30.28125 C 12.863281 -31.039062 15.4375 -31.421875 17.84375 -31.421875 C 23.59375 -31.421875 27.691406 -30.191406 30.140625 -27.734375 C 32.597656 -25.285156 33.828125 -21.363281 33.828125 -15.96875 C 33.828125 -10.175781 32.507812 -5.921875 29.875 -3.203125 C 27.25 -0.484375 23.148438 0.875 17.578125 0.875 Z M 17.78125 -6.953125 C 19.519531 -6.953125 20.65625 -7.5625 21.1875 -8.78125 C 21.71875 -10.007812 21.984375 -12.1875 21.984375 -15.3125 C 21.984375 -17.488281 21.875 -19.164062 21.65625 -20.34375 C 21.4375 -21.53125 21.023438 -22.398438 20.421875 -22.953125 C 19.816406 -23.515625 18.890625 -23.796875 17.640625 -23.796875 C 15.859375 -23.796875 14.835938 -23.640625 14.578125 -23.328125 C 14.210938 -23.015625 13.921875 -22.035156 13.703125 -20.390625 C 13.484375 -18.742188 13.375 -17.023438 13.375 -15.234375 C 13.375 -12.203125 13.671875 -10.0625 14.265625 -8.8125 C 14.867188 -7.570312 16.039062 -6.953125 17.78125 -6.953125 Z M 17.78125 -6.953125 "/></g></g></g><g fill="#a44ffc" fill-opacity="1"><g transform="translate(301.078983, 47.44623)"><g><path d="M 17.578125 0.875 C 12.234375 0.875 8.234375 -0.382812 5.578125 -2.90625 C 2.929688 -5.425781 1.609375 -9.40625 1.609375 -14.84375 C 1.609375 -17.820312 1.882812 -20.4375 2.4375 -22.6875 C 3 -24.9375 3.679688 -26.507812 4.484375 -27.40625 C 5.503906 -28.5625 7.382812 -29.519531 10.125 -30.28125 C 12.863281 -31.039062 15.4375 -31.421875 17.84375 -31.421875 C 23.59375 -31.421875 27.691406 -30.191406 30.140625 -27.734375 C 32.597656 -25.285156 33.828125 -21.363281 33.828125 -15.96875 C 33.828125 -10.175781 32.507812 -5.921875 29.875 -3.203125 C 27.25 -0.484375 23.148438 0.875 17.578125 0.875 Z M 17.78125 -6.953125 C 19.519531 -6.953125 20.65625 -7.5625 21.1875 -8.78125 C 21.71875 -10.007812 21.984375 -12.1875 21.984375 -15.3125 C 21.984375 -17.488281 21.875 -19.164062 21.65625 -20.34375 C 21.4375 -21.53125 21.023438 -22.398438 20.421875 -22.953125 C 19.816406 -23.515625 18.890625 -23.796875 17.640625 -23.796875 C 15.859375 -23.796875 14.835938 -23.640625 14.578125 -23.328125 C 14.210938 -23.015625 13.921875 -22.035156 13.703125 -20.390625 C 13.484375 -18.742188 13.375 -17.023438 13.375 -15.234375 C 13.375 -12.203125 13.671875 -10.0625 14.265625 -8.8125 C 14.867188 -7.570312 16.039062 -6.953125 17.78125 -6.953125 Z M 17.78125 -6.953125 "/></g></g></g><g fill="#a44ffc" fill-opacity="1"><g transform="translate(336.50429, 47.44623)"><g><path d="M 33.359375 -40.578125 L 33.359375 0 L 23.9375 0 L 23 -5.140625 C 22.101562 -3.410156 20.785156 -2.03125 19.046875 -1 C 17.304688 0.0195312 15.347656 0.53125 13.171875 0.53125 C 9.691406 0.53125 6.914062 -0.710938 4.84375 -3.203125 C 2.769531 -5.703125 1.734375 -9.445312 1.734375 -14.4375 C 1.734375 -18.226562 2.175781 -21.347656 3.0625 -23.796875 C 3.957031 -26.242188 5.007812 -28.003906 6.21875 -29.078125 C 6.976562 -29.742188 8.523438 -30.300781 10.859375 -30.75 C 13.203125 -31.195312 15.285156 -31.421875 17.109375 -31.421875 C 18.710938 -31.421875 20.363281 -31.265625 22.0625 -30.953125 C 21.925781 -33.085938 21.859375 -34.265625 21.859375 -34.484375 L 21.859375 -40.109375 Z M 18.1875 -8.421875 C 19.382812 -8.421875 20.628906 -8.625 21.921875 -9.03125 L 21.921875 -23.53125 C 20.628906 -23.707031 19.203125 -23.796875 17.640625 -23.796875 C 16.304688 -23.796875 15.460938 -23.6875 15.109375 -23.46875 C 14.617188 -23.101562 14.226562 -22.085938 13.9375 -20.421875 C 13.644531 -18.753906 13.5 -17.003906 13.5 -15.171875 C 13.5 -12.453125 13.910156 -10.644531 14.734375 -9.75 C 15.554688 -8.863281 16.707031 -8.421875 18.1875 -8.421875 Z M 18.1875 -8.421875 "/></g></g></g><g fill="#5e17eb" fill-opacity="0.5098"><g transform="translate(3.303546, 54.946642)"><g><path d="M 51.890625 -49.40625 L 51.890625 -39.53125 L 12.359375 -39.53125 L 12.359375 -9.875 L 42 -9.875 L 42 -19.765625 L 22.234375 -19.765625 L 22.234375 -29.640625 L 51.890625 -29.640625 L 51.890625 -9.875 C 51.890625 -8.113281 51.445312 -6.476562 50.5625 -4.96875 C 49.675781 -3.46875 48.488281 -2.265625 47 -1.359375 C 45.519531 -0.453125 43.851562 0 42 0 L 12.359375 0 C 10.546875 0 8.882812 -0.441406 7.375 -1.328125 C 5.875 -2.210938 4.679688 -3.40625 3.796875 -4.90625 C 2.910156 -6.414062 2.46875 -8.070312 2.46875 -9.875 L 2.46875 -39.53125 C 2.46875 -41.34375 2.910156 -43 3.796875 -44.5 C 4.679688 -46 5.875 -47.191406 7.375 -48.078125 C 8.882812 -48.960938 10.546875 -49.40625 12.359375 -49.40625 Z M 51.890625 -49.40625 "/></g></g></g><g fill="#000000" fill-opacity="1"><g transform="translate(0.723117, 51.871407)"><g><path d="M 51.890625 -49.40625 L 51.890625 -39.53125 L 12.359375 -39.53125 L 12.359375 -9.875 L 42 -9.875 L 42 -19.765625 L 22.234375 -19.765625 L 22.234375 -29.640625 L 51.890625 -29.640625 L 51.890625 -9.875 C 51.890625 -8.113281 51.445312 -6.476562 50.5625 -4.96875 C 49.675781 -3.46875 48.488281 -2.265625 47 -1.359375 C 45.519531 -0.453125 43.851562 0 42 0 L 12.359375 0 C 10.546875 0 8.882812 -0.441406 7.375 -1.328125 C 5.875 -2.210938 4.679688 -3.40625 3.796875 -4.90625 C 2.910156 -6.414062 2.46875 -8.070312 2.46875 -9.875 L 2.46875 -39.53125 C 2.46875 -41.34375 2.910156 -43 3.796875 -44.5 C 4.679688 -46 5.875 -47.191406 7.375 -48.078125 C 8.882812 -48.960938 10.546875 -49.40625 12.359375 -49.40625 Z M 51.890625 -49.40625 "/></g></g></g></svg>