<svg width="100" height="100" viewBox="0 0 100 100" fill="none" xmlns="http://www.w3.org/2000/svg">
<rect width="100" height="100" fill="#3083FF"/>
<path fill-rule="evenodd" clip-rule="evenodd" d="M42.9054 42.3579C42.8774 42.4246 42.8147 42.4702 42.7426 42.4763L25.0962 43.9571C24.9247 43.9715 24.8552 44.1853 24.9855 44.2978L38.3913 55.8682C38.4461 55.9154 38.47 55.9892 38.4535 56.0596L34.4089 73.3C34.3696 73.4675 34.5514 73.5996 34.6986 73.5105L49.8453 64.3362C49.9072 64.2988 49.9848 64.2988 50.0466 64.3362L65.1933 73.5105C65.3405 73.5996 65.5224 73.4675 65.4831 73.3L61.4385 56.0596C61.4219 55.9892 61.4459 55.9154 61.5007 55.8682L74.9065 44.2978C75.0367 44.1853 74.9673 43.9715 74.7958 43.9571L57.1494 42.4763C57.0773 42.4702 57.0145 42.4246 56.9865 42.3579L50.1251 26.0328C50.0584 25.8742 49.8336 25.8742 49.7669 26.0328L42.9054 42.3579ZM59.0345 39.7104L52.8113 24.9038C51.7444 22.3654 48.1476 22.3654 47.0807 24.9038L40.8575 39.7104L24.8525 41.0535C22.1086 41.2838 20.9972 44.7046 23.0817 46.5036L35.2405 56.9977L31.5721 72.6344C30.9432 75.3152 33.853 77.4293 36.2082 76.0028L49.946 67.6819L63.6838 76.0028C66.0389 77.4293 68.9488 75.3151 68.3199 72.6344L64.6515 56.9977L76.8103 46.5036C78.8948 44.7045 77.7833 41.2838 75.0395 41.0535L59.0345 39.7104Z" fill="white"/>
</svg>
