<svg width="100" height="100" viewBox="0 0 100 100" fill="none" xmlns="http://www.w3.org/2000/svg">
<rect width="100" height="100" fill="#3083FF"/>
<path d="M27.0138 30.2566C39.1497 29.8701 48.2575 26.1135 50.5 25.102C52.7425 26.1135 61.8503 29.8701 73.9862 30.2566C73.6179 49.4449 67.6426 60.8615 61.7888 67.4988C56.6369 73.3349 51.7883 75.4476 50.5 75.9374C49.2117 75.4476 44.3631 73.3349 39.2112 67.4988C33.3574 60.8615 27.3821 49.4449 27.0138 30.2566Z" stroke="white" stroke-width="2"/>
<path d="M62.2857 41C61.8504 41 61.4085 41.166 61.0737 41.498L48.5714 53.8961L42.9263 48.298C42.2567 47.634 41.1719 47.634 40.5022 48.298C39.8326 48.9621 39.8326 50.0379 40.5022 50.702L47.3594 57.502C47.6942 57.834 48.1295 58 48.5714 58C49.0134 58 49.4487 57.834 49.7835 57.502L63.4978 43.902C64.1674 43.2379 64.1674 42.1621 63.4978 41.498C63.1629 41.166 62.721 41 62.2857 41Z" fill="white"/>
</svg>
