<svg width="64" height="64" viewBox="0 0 64 64" fill="none" xmlns="http://www.w3.org/2000/svg">
<g clip-path="url(#clip0_133_15887)">
<rect width="64" height="64" fill="white"/>
<path d="M74 -10.0532H-8.94727V74H74V-10.0532Z" fill="#F4F9FF"/>
<path d="M74 31.9734C74 55.184 55.4316 74 32.5264 74C9.62112 74 -8.94727 55.184 -8.94727 31.9734C-8.94727 8.76272 9.62112 -10.0532 32.5264 -10.0532C55.4316 -10.0532 74 8.76272 74 31.9734Z" fill="#F4F9FF"/>
<path fill-rule="evenodd" clip-rule="evenodd" d="M30.0787 52.6442L31.9947 50.9357L33.9107 52.6442L31.9947 54.8504L30.0787 52.6442ZM33.6549 48.9272C32.6414 50.191 31.9947 50.9357 31.9947 50.9357C31.9947 50.9357 31.348 50.191 30.3344 48.9272C26.6614 44.3478 18.1701 32.9517 18.1701 25.4687C18.1701 17.5055 24.3521 11.0643 31.9947 11.0643C39.6372 11.0643 45.8192 17.5055 45.8192 25.4687C45.8192 32.9517 37.3279 44.3478 33.6549 48.9272ZM31.9947 8.47801C41.1134 8.47801 48.3715 16.1456 48.3715 25.4687C48.3715 28.4135 47.3274 31.6046 45.9749 34.5631C44.6003 37.57 42.7914 40.5816 41.0204 43.2325C39.244 45.8916 37.4726 48.2366 36.1477 49.9147C35.4841 50.7553 34.9297 51.4319 34.5393 51.9009C34.3439 52.1355 34.1893 52.3183 34.0823 52.444C34.0288 52.5068 33.9872 52.5553 33.9583 52.5889L33.9246 52.628L33.9107 52.6442C33.9102 52.6446 33.9107 52.6442 31.9947 50.9357C30.0787 52.6442 30.079 52.6446 30.0787 52.6442L30.0647 52.628L30.031 52.5889C30.0021 52.5553 29.9605 52.5068 29.907 52.444C29.8 52.3183 29.6455 52.1355 29.4501 51.9009C29.0595 51.4319 28.5053 50.7553 27.8417 49.9147C26.5167 48.2366 24.7454 45.8916 22.969 43.2325C21.1979 40.5816 19.389 37.57 18.0144 34.5631C16.6619 31.6046 15.6179 28.4135 15.6179 25.4687C15.6179 16.1456 22.876 8.47801 31.9947 8.47801Z" fill="#a44ffc"/>
<path fill-rule="evenodd" clip-rule="evenodd" d="M41.0113 24.8374C41.0113 29.7771 37.0596 33.7815 32.1848 33.7815C27.3101 33.7815 23.3584 29.7771 23.3584 24.8374C23.3584 19.8977 27.3101 15.8932 32.1848 15.8932C37.0596 15.8932 41.0113 19.8977 41.0113 24.8374ZM32.1848 31.303C35.7087 31.303 38.5654 28.4083 38.5654 24.8374C38.5654 21.2665 35.7087 18.3718 32.1848 18.3718C28.661 18.3718 25.8043 21.2665 25.8043 24.8374C25.8043 28.4083 28.661 31.303 32.1848 31.303Z" fill="#a44ffc"/>
</g>
<defs>
<clipPath id="clip0_133_15887">
<rect width="64" height="64" fill="white"/>
</clipPath>
</defs>
</svg>
