<svg xmlns="http://www.w3.org/2000/svg" xmlns:xlink="http://www.w3.org/1999/xlink" width="95" zoomAndPan="magnify" viewBox="0 0 71.25 71.25" height="95" preserveAspectRatio="xMidYMid meet" version="1.0"><defs><clipPath id="959d886a24"><path d="M 0 0 L 70.507812 0 L 70.507812 70.507812 L 0 70.507812 Z M 0 0 " clip-rule="nonzero"/></clipPath><clipPath id="24df5db69f"><path d="M 7.050781 7.050781 L 63.457031 7.050781 L 63.457031 63.457031 L 7.050781 63.457031 Z M 7.050781 7.050781 " clip-rule="nonzero"/></clipPath></defs><g clip-path="url(#959d886a24)"><path fill="#ffffff" d="M 0 0 L 70.507812 0 L 70.507812 70.507812 L 0 70.507812 Z M 0 0 " fill-opacity="1" fill-rule="nonzero"/><path fill="#ffffff" d="M 0 0 L 70.507812 0 L 70.507812 70.507812 L 0 70.507812 Z M 0 0 " fill-opacity="1" fill-rule="nonzero"/></g><g clip-path="url(#24df5db69f)"><path fill="#a44ffc" d="M 14.570312 7.050781 C 12.472656 7.050781 10.8125 8.746094 10.8125 10.8125 L 10.8125 26.46875 C 9.460938 26.914062 8.542969 27.765625 7.960938 28.722656 C 7.277344 29.847656 7.050781 31.078125 7.050781 32.109375 L 7.050781 40.109375 C 7.050781 41.777344 7.808594 43.824219 8.515625 45.808594 C 8.871094 46.804688 9.21875 47.769531 9.472656 48.570312 C 9.730469 49.375 9.871094 49.976562 9.871094 50.289062 L 9.871094 53.835938 C 9.296875 54.351562 8.929688 55.089844 8.929688 55.9375 L 8.929688 60.640625 C 8.929688 62.207031 10.203125 63.457031 11.75 63.457031 L 24.914062 63.457031 C 26.460938 63.457031 27.734375 62.226562 27.734375 60.640625 L 27.734375 55.9375 C 27.734375 54.820312 27.085938 53.835938 26.113281 53.378906 C 26.269531 52.734375 26.605469 51.878906 26.972656 50.839844 C 27.40625 49.628906 27.855469 48.183594 27.992188 46.539062 L 39.851562 46.539062 L 42.363281 51.578125 C 41.488281 52.058594 40.894531 52.96875 40.894531 54.054688 L 40.894531 58.761719 C 40.894531 60.308594 42.144531 61.578125 43.714844 61.578125 L 56.875 61.578125 C 58.449219 61.578125 59.695312 60.308594 59.695312 58.761719 L 59.695312 54.054688 C 59.695312 52.925781 59.035156 51.945312 58.050781 51.492188 L 59.464844 46.539062 L 59.695312 46.539062 C 61.761719 46.539062 63.457031 44.867188 63.457031 42.773438 L 63.457031 10.8125 C 63.457031 8.746094 61.800781 7.050781 59.695312 7.050781 Z M 14.570312 8.929688 L 59.695312 8.929688 C 60.734375 8.929688 61.578125 9.753906 61.578125 10.8125 L 61.578125 42.773438 C 61.578125 43.832031 60.726562 44.660156 59.695312 44.660156 L 59.695312 13.632812 C 59.695312 12.085938 58.453125 10.8125 56.875 10.8125 L 17.390625 10.8125 C 15.808594 10.8125 14.570312 12.085938 14.570312 13.632812 L 14.570312 29.613281 C 13.886719 29.613281 13.25 29.789062 12.691406 30.117188 L 12.691406 10.8125 C 12.691406 9.753906 13.535156 8.929688 14.570312 8.929688 Z M 17.390625 12.691406 L 56.875 12.691406 C 57.386719 12.691406 57.816406 13.09375 57.816406 13.632812 L 57.816406 35.414062 C 57.519531 35.308594 57.210938 35.253906 56.875 35.253906 C 56.410156 35.253906 56.175781 35.328125 55.832031 35.449219 C 55.65625 34.582031 54.664062 33.363281 53.117188 33.375 C 52.414062 33.378906 51.980469 33.605469 51.730469 33.734375 C 51.402344 33.207031 50.644531 32.4375 49.355469 32.4375 C 48.933594 32.4375 48.660156 32.507812 48.410156 32.59375 L 48.410156 29.613281 L 55.011719 29.613281 C 56.265625 29.613281 56.265625 27.734375 55.011719 27.734375 L 48.410156 27.734375 L 48.410156 24.914062 C 48.410156 24.578125 48.363281 24.265625 48.253906 23.972656 L 50.457031 23.972656 C 50.839844 25.058594 51.871094 25.851562 53.109375 25.851562 C 54.691406 25.851562 55.9375 24.578125 55.9375 23.03125 C 55.9375 21.484375 54.679688 20.210938 53.109375 20.210938 C 51.882812 20.210938 50.847656 21.003906 50.457031 22.085938 L 34.308594 22.085938 C 33.054688 22.085938 33.054688 23.972656 34.308594 23.972656 L 42.9375 23.972656 C 42.828125 24.265625 42.773438 24.585938 42.773438 24.914062 L 42.773438 27.734375 L 40.734375 27.734375 C 40.339844 26.644531 39.324219 25.859375 38.070312 25.859375 C 36.816406 25.859375 35.800781 26.644531 35.414062 27.734375 L 34.324219 27.734375 C 33.070312 27.734375 33.070312 29.613281 34.324219 29.613281 L 35.410156 29.613281 C 35.796875 30.699219 36.804688 31.488281 38.070312 31.488281 C 39.335938 31.488281 40.351562 30.699219 40.734375 29.613281 L 42.773438 29.613281 L 42.773438 37.394531 L 41.667969 35.464844 C 40.761719 33.898438 38.757812 33.34375 37.167969 34.265625 C 35.558594 35.195312 35.164062 37.148438 35.9375 38.707031 L 37.035156 40.894531 L 20.339844 40.894531 C 19.652344 40.023438 18.976562 39.335938 18.335938 38.515625 L 18.335938 33.375 C 18.335938 31.992188 17.597656 30.785156 16.457031 30.113281 L 16.457031 13.632812 C 16.457031 13.113281 16.851562 12.691406 17.390625 12.691406 Z M 38.074219 14.570312 C 36.839844 14.570312 35.796875 15.363281 35.410156 16.457031 L 34.3125 16.457031 C 33.058594 16.457031 33.058594 18.335938 34.3125 18.335938 L 35.414062 18.335938 C 35.800781 19.417969 36.835938 20.210938 38.074219 20.210938 C 39.3125 20.210938 40.347656 19.417969 40.734375 18.335938 L 55.011719 18.335938 C 56.265625 18.335938 56.265625 16.457031 55.011719 16.457031 L 40.734375 16.457031 C 40.359375 15.371094 39.308594 14.570312 38.074219 14.570312 Z M 24.914062 15.511719 C 24.6875 15.511719 24.476562 15.589844 24.308594 15.730469 L 18.667969 20.433594 C 17.707031 21.234375 18.914062 22.679688 19.875 21.871094 L 20.207031 21.597656 L 20.207031 24.914062 C 18.957031 24.917969 18.957031 26.792969 20.210938 26.792969 L 29.613281 26.792969 C 30.867188 26.792969 30.867188 24.914062 29.613281 24.914062 L 29.613281 21.59375 L 29.949219 21.871094 C 30.910156 22.679688 32.121094 21.234375 31.15625 20.433594 L 25.515625 15.730469 C 25.347656 15.589844 25.136719 15.511719 24.914062 15.511719 Z M 38.074219 16.453125 C 38.582031 16.453125 39.019531 16.851562 39.019531 17.386719 C 39.019531 17.925781 38.589844 18.332031 38.074219 18.332031 C 37.558594 18.332031 37.140625 17.925781 37.140625 17.386719 C 37.140625 16.851562 37.566406 16.453125 38.074219 16.453125 Z M 24.914062 17.675781 L 27.734375 20.027344 L 27.734375 24.914062 L 25.851562 24.914062 L 25.851562 23.03125 C 25.824219 21.808594 23.996094 21.808594 23.972656 23.03125 L 23.972656 24.914062 L 22.085938 24.914062 L 22.085938 20.03125 Z M 53.109375 22.09375 C 53.625 22.09375 54.054688 22.492188 54.054688 23.03125 C 54.054688 23.570312 53.609375 23.976562 53.109375 23.976562 C 52.613281 23.976562 52.175781 23.570312 52.175781 23.03125 C 52.175781 22.492188 52.601562 22.09375 53.109375 22.09375 Z M 45.59375 23.972656 C 46.097656 23.972656 46.539062 24.378906 46.539062 24.914062 L 46.539062 39.015625 C 46.539062 40.25 48.410156 40.296875 48.410156 39.015625 L 48.410156 35.253906 C 48.410156 34.714844 48.859375 34.308594 49.355469 34.308594 C 49.851562 34.308594 50.289062 34.714844 50.289062 35.253906 L 50.289062 39.015625 C 50.289062 40.269531 52.175781 40.269531 52.175781 39.015625 L 52.175781 36.1875 C 52.175781 35.65625 52.613281 35.253906 53.117188 35.253906 C 53.625 35.253906 54.054688 35.65625 54.054688 36.1875 L 54.054688 39.015625 C 54.054688 40.269531 55.9375 40.269531 55.9375 39.015625 L 55.9375 38.074219 C 55.9375 37.535156 56.367188 37.132812 56.875 37.132812 C 57.390625 37.132812 57.816406 37.535156 57.816406 38.074219 L 57.816406 45.460938 L 56.160156 51.234375 L 44.296875 51.234375 L 37.617188 37.863281 C 37.230469 37.089844 37.46875 36.257812 38.109375 35.886719 C 38.75 35.511719 39.621094 35.691406 40.039062 36.40625 L 42.902344 41.359375 C 43.382812 42.195312 44.65625 41.859375 44.660156 40.894531 L 44.660156 24.914062 C 44.660156 24.378906 45.089844 23.972656 45.59375 23.972656 Z M 38.070312 27.738281 C 38.582031 27.738281 39.015625 28.132812 39.015625 28.671875 C 39.015625 29.210938 38.5625 29.617188 38.070312 29.617188 C 37.578125 29.617188 37.132812 29.210938 37.132812 28.671875 C 37.132812 28.132812 37.558594 27.738281 38.070312 27.738281 Z M 10.8125 28.5 L 10.8125 39.015625 C 10.839844 40.242188 12.667969 40.242188 12.691406 39.015625 L 12.691406 33.375 C 12.691406 32.316406 13.554688 31.492188 14.570312 31.492188 C 15.59375 31.492188 16.457031 32.316406 16.457031 33.375 L 16.457031 38.738281 C 16.457031 39.0625 16.597656 39.292969 16.636719 39.363281 C 17.132812 40.121094 18.15625 41.21875 18.710938 41.875 C 19.46875 42.765625 20.210938 43.867188 20.210938 44.210938 L 20.210938 47.476562 C 20.183594 48.757812 22.121094 48.757812 22.09375 47.476562 L 22.09375 46.539062 L 26.113281 46.539062 C 25.980469 47.871094 25.601562 49.089844 25.207031 50.207031 C 24.835938 51.253906 24.410156 52.273438 24.246094 53.117188 L 11.75 53.117188 L 11.75 50.289062 C 11.75 49.613281 11.535156 48.867188 11.261719 48.003906 C 10.988281 47.136719 10.636719 46.164062 10.289062 45.179688 C 9.582031 43.210938 8.929688 41.113281 8.929688 40.109375 L 8.929688 32.109375 C 8.929688 31.371094 9.113281 30.441406 9.5625 29.695312 C 9.851562 29.214844 10.28125 28.785156 10.8125 28.5 Z M 21.667969 42.773438 L 37.972656 42.773438 L 38.910156 44.660156 L 22.09375 44.660156 L 22.09375 44.15625 C 22.09375 43.601562 21.792969 42.988281 21.667969 42.773438 Z M 43.714844 53.117188 L 56.875 53.117188 C 57.386719 53.117188 57.816406 53.515625 57.816406 54.054688 L 57.816406 58.761719 C 57.816406 59.296875 57.378906 59.695312 56.875 59.695312 L 43.714844 59.695312 C 43.199219 59.695312 42.773438 59.296875 42.773438 58.761719 L 42.773438 54.054688 C 42.773438 53.515625 43.199219 53.117188 43.714844 53.117188 Z M 11.75 54.996094 L 24.914062 54.996094 C 25.425781 54.996094 25.851562 55.398438 25.851562 55.9375 L 25.851562 60.640625 C 25.851562 61.175781 25.417969 61.578125 24.914062 61.578125 L 11.75 61.578125 C 11.226562 61.578125 10.8125 61.15625 10.8125 60.640625 L 10.8125 55.9375 C 10.8125 55.398438 11.230469 54.996094 11.75 54.996094 Z M 45.59375 55.9375 C 45.074219 55.9375 44.65625 56.355469 44.65625 56.875 C 44.65625 57.394531 45.074219 57.816406 45.59375 57.816406 C 46.113281 57.816406 46.535156 57.394531 46.535156 56.875 C 46.535156 56.355469 46.113281 55.9375 45.59375 55.9375 Z M 13.632812 57.816406 C 13.113281 57.816406 12.691406 58.238281 12.691406 58.757812 C 12.691406 59.277344 13.113281 59.695312 13.632812 59.695312 C 14.152344 59.695312 14.570312 59.277344 14.570312 58.757812 C 14.570312 58.238281 14.152344 57.816406 13.632812 57.816406 " fill-opacity="1" fill-rule="nonzero"/></g></svg>