<svg xmlns="http://www.w3.org/2000/svg" xmlns:xlink="http://www.w3.org/1999/xlink" width="95" zoomAndPan="magnify" viewBox="0 0 71.25 71.25" height="95" preserveAspectRatio="xMidYMid meet" version="1.0"><defs><clipPath id="04d30a8c52"><path d="M 0 0 L 70.507812 0 L 70.507812 70.507812 L 0 70.507812 Z M 0 0 " clip-rule="nonzero"/></clipPath><clipPath id="6c5a775df1"><path d="M 7.050781 14 L 63.457031 14 L 63.457031 63.457031 L 7.050781 63.457031 Z M 7.050781 14 " clip-rule="nonzero"/></clipPath><clipPath id="2ff6d4f641"><path d="M 18 7.050781 L 53 7.050781 L 53 25 L 18 25 Z M 18 7.050781 " clip-rule="nonzero"/></clipPath></defs><g clip-path="url(#04d30a8c52)"><path fill="#ffffff" d="M 0 0 L 70.507812 0 L 70.507812 70.507812 L 0 70.507812 Z M 0 0 " fill-opacity="1" fill-rule="nonzero"/><path fill="#ffffff" d="M 0 0 L 70.507812 0 L 70.507812 70.507812 L 0 70.507812 Z M 0 0 " fill-opacity="1" fill-rule="nonzero"/></g><g clip-path="url(#6c5a775df1)"><path fill="#a44ffc" d="M 58.757812 50.296875 L 11.75 50.296875 C 10.195312 50.296875 8.929688 49.03125 8.929688 47.476562 L 8.929688 44.65625 L 61.578125 44.65625 L 61.578125 47.476562 C 61.578125 49.03125 60.3125 50.296875 58.757812 50.296875 Z M 41.710938 57.816406 L 28.796875 57.816406 L 29.503906 52.175781 L 41.003906 52.175781 Z M 44.65625 61.578125 L 25.851562 61.578125 L 25.851562 59.695312 L 44.65625 59.695312 Z M 58.757812 14.570312 L 51.234375 14.570312 L 51.234375 16.453125 L 58.757812 16.453125 C 60.3125 16.453125 61.578125 17.714844 61.578125 19.273438 L 61.578125 42.773438 L 8.929688 42.773438 L 8.929688 19.273438 C 8.929688 17.714844 10.195312 16.453125 11.75 16.453125 L 19.273438 16.453125 L 19.273438 14.570312 L 11.75 14.570312 C 9.160156 14.570312 7.050781 16.679688 7.050781 19.273438 L 7.050781 47.476562 C 7.050781 50.066406 9.160156 52.175781 11.75 52.175781 L 27.609375 52.175781 L 26.902344 57.816406 L 25.851562 57.816406 C 24.816406 57.816406 23.972656 58.660156 23.972656 59.695312 L 23.972656 61.578125 L 22.09375 61.578125 L 22.09375 63.457031 L 48.414062 63.457031 L 48.414062 61.578125 L 46.535156 61.578125 L 46.535156 59.695312 C 46.535156 58.660156 45.691406 57.816406 44.65625 57.816406 L 43.605469 57.816406 L 42.898438 52.175781 L 58.757812 52.175781 C 61.347656 52.175781 63.457031 50.066406 63.457031 47.476562 L 63.457031 19.273438 C 63.457031 16.679688 61.347656 14.570312 58.757812 14.570312 " fill-opacity="1" fill-rule="nonzero"/></g><path fill="#a44ffc" d="M 56.875 48.414062 L 58.757812 48.414062 L 58.757812 46.535156 L 56.875 46.535156 L 56.875 48.414062 " fill-opacity="1" fill-rule="nonzero"/><path fill="#a44ffc" d="M 44.703125 31.789062 L 45.644531 34.609375 C 45.769531 34.992188 46.132812 35.253906 46.535156 35.253906 L 48.40625 35.253906 C 47.605469 35.851562 46.621094 36.195312 45.59375 36.195312 C 43.929688 36.195312 42.371094 35.292969 41.53125 33.84375 C 41.359375 33.554688 41.046875 33.375 40.714844 33.375 L 29.792969 33.375 C 29.460938 33.375 29.148438 33.554688 28.976562 33.84375 C 28.136719 35.292969 26.578125 36.195312 24.914062 36.195312 C 23.886719 36.195312 22.902344 35.851562 22.101562 35.253906 L 23.972656 35.253906 C 24.375 35.253906 24.738281 34.992188 24.863281 34.609375 L 25.804688 31.789062 C 25.871094 31.597656 25.871094 31.390625 25.804688 31.195312 L 24.863281 28.375 C 24.738281 27.992188 24.375 27.734375 23.972656 27.734375 L 22.101562 27.734375 C 22.902344 27.132812 23.886719 26.792969 24.914062 26.792969 C 26.578125 26.792969 28.136719 27.691406 28.976562 29.144531 C 29.148438 29.433594 29.460938 29.613281 29.792969 29.613281 L 40.714844 29.613281 C 41.046875 29.613281 41.359375 29.433594 41.53125 29.144531 C 42.371094 27.691406 43.929688 26.792969 45.59375 26.792969 C 46.621094 26.792969 47.605469 27.132812 48.40625 27.734375 L 46.535156 27.734375 C 46.132812 27.734375 45.769531 27.992188 45.644531 28.375 L 44.703125 31.195312 C 44.636719 31.390625 44.636719 31.597656 44.703125 31.789062 Z M 50.476562 29.613281 C 50.808594 29.613281 51.121094 29.433594 51.285156 29.144531 C 51.457031 28.851562 51.457031 28.492188 51.285156 28.203125 C 50.113281 26.171875 47.929688 24.914062 45.59375 24.914062 C 43.441406 24.914062 41.421875 25.980469 40.199219 27.734375 L 30.308594 27.734375 C 29.085938 25.980469 27.066406 24.914062 24.914062 24.914062 C 22.578125 24.914062 20.394531 26.171875 19.222656 28.203125 C 19.050781 28.492188 19.050781 28.851562 19.222656 29.144531 C 19.386719 29.433594 19.699219 29.613281 20.03125 29.613281 L 23.296875 29.613281 L 23.921875 31.492188 L 23.296875 33.375 L 20.03125 33.375 C 19.699219 33.375 19.386719 33.554688 19.222656 33.84375 C 19.050781 34.132812 19.050781 34.492188 19.222656 34.785156 C 20.394531 36.816406 22.578125 38.074219 24.914062 38.074219 C 27.066406 38.074219 29.085938 37.003906 30.308594 35.253906 L 40.199219 35.253906 C 41.421875 37.003906 43.441406 38.074219 45.59375 38.074219 C 47.929688 38.074219 50.113281 36.816406 51.285156 34.785156 C 51.457031 34.492188 51.457031 34.132812 51.285156 33.84375 C 51.121094 33.554688 50.808594 33.375 50.476562 33.375 L 47.210938 33.375 L 46.585938 31.492188 L 47.210938 29.613281 L 50.476562 29.613281 " fill-opacity="1" fill-rule="nonzero"/><g clip-path="url(#2ff6d4f641)"><path fill="#a44ffc" d="M 23.429688 18.191406 C 23.195312 18.675781 22.988281 19.179688 22.8125 19.699219 L 19.140625 20.222656 C 18.675781 20.289062 18.332031 20.6875 18.332031 21.152344 L 18.332031 24.914062 L 20.210938 24.914062 L 20.210938 21.96875 L 23.660156 21.476562 C 24.027344 21.425781 24.328125 21.164062 24.433594 20.808594 C 24.664062 20.011719 24.980469 19.25 25.355469 18.550781 C 25.535156 18.230469 25.511719 17.832031 25.289062 17.539062 L 23.199219 14.753906 L 26.035156 11.921875 L 28.820312 14.007812 C 29.113281 14.230469 29.515625 14.253906 29.832031 14.078125 C 30.53125 13.695312 31.292969 13.382812 32.089844 13.152344 C 32.445312 13.046875 32.707031 12.746094 32.757812 12.378906 L 33.25 8.929688 L 37.257812 8.929688 L 37.75 12.378906 C 37.800781 12.746094 38.0625 13.046875 38.417969 13.152344 C 39.214844 13.382812 39.976562 13.695312 40.675781 14.078125 C 40.992188 14.253906 41.394531 14.230469 41.6875 14.007812 L 44.472656 11.921875 L 47.308594 14.753906 L 45.21875 17.539062 C 44.996094 17.832031 44.972656 18.230469 45.152344 18.550781 C 45.527344 19.25 45.84375 20.011719 46.074219 20.808594 C 46.179688 21.164062 46.480469 21.425781 46.847656 21.476562 L 50.296875 21.96875 L 50.296875 24.914062 L 52.175781 24.914062 L 52.175781 21.152344 C 52.175781 20.6875 51.832031 20.289062 51.367188 20.222656 L 47.695312 19.699219 C 47.519531 19.179688 47.3125 18.675781 47.078125 18.191406 L 49.300781 15.230469 C 49.582031 14.855469 49.546875 14.332031 49.210938 14.003906 L 45.222656 10.015625 C 44.894531 9.679688 44.371094 9.644531 43.996094 9.925781 L 41.035156 12.148438 C 40.550781 11.914062 40.046875 11.707031 39.527344 11.53125 L 39.003906 7.859375 C 38.9375 7.394531 38.539062 7.050781 38.074219 7.050781 L 32.433594 7.050781 C 31.96875 7.050781 31.570312 7.394531 31.503906 7.859375 L 30.980469 11.53125 C 30.460938 11.707031 29.957031 11.914062 29.472656 12.148438 L 26.511719 9.925781 C 26.136719 9.644531 25.609375 9.679688 25.285156 10.015625 L 21.296875 14.003906 C 20.960938 14.332031 20.925781 14.855469 21.207031 15.230469 L 23.429688 18.191406 " fill-opacity="1" fill-rule="nonzero"/></g><path fill="#a44ffc" d="M 36.195312 10.8125 L 34.3125 10.8125 L 34.3125 12.691406 L 36.195312 12.691406 L 36.195312 10.8125 " fill-opacity="1" fill-rule="nonzero"/><path fill="#a44ffc" d="M 25.285156 15.332031 L 26.613281 16.660156 L 27.941406 15.332031 L 26.613281 14.003906 L 25.285156 15.332031 " fill-opacity="1" fill-rule="nonzero"/><path fill="#a44ffc" d="M 45.222656 15.332031 L 43.894531 14.003906 L 42.566406 15.332031 L 43.894531 16.660156 L 45.222656 15.332031 " fill-opacity="1" fill-rule="nonzero"/><path fill="#a44ffc" d="M 27.734375 23.972656 L 29.613281 23.972656 C 29.613281 20.863281 32.144531 18.332031 35.253906 18.332031 C 38.363281 18.332031 40.894531 20.863281 40.894531 23.972656 L 42.773438 23.972656 C 42.773438 19.828125 39.398438 16.453125 35.253906 16.453125 C 31.109375 16.453125 27.734375 19.828125 27.734375 23.972656 " fill-opacity="1" fill-rule="nonzero"/></svg>