<svg xmlns="http://www.w3.org/2000/svg" xmlns:xlink="http://www.w3.org/1999/xlink" width="95" zoomAndPan="magnify" viewBox="0 0 71.25 71.25" height="95" preserveAspectRatio="xMidYMid meet" version="1.0"><defs><clipPath id="a55bb4f99a"><path d="M 0 0 L 70.507812 0 L 70.507812 70.507812 L 0 70.507812 Z M 0 0 " clip-rule="nonzero"/></clipPath><clipPath id="fa67d16425"><path d="M 35 14 L 61.792969 14 L 61.792969 41 L 35 41 Z M 35 14 " clip-rule="nonzero"/></clipPath><clipPath id="ce2846529c"><path d="M 8.355469 40 L 32 40 L 32 63.457031 L 8.355469 63.457031 Z M 8.355469 40 " clip-rule="nonzero"/></clipPath><clipPath id="643851b895"><path d="M 18 42 L 49 42 L 49 63.457031 L 18 63.457031 Z M 18 42 " clip-rule="nonzero"/></clipPath><clipPath id="8ee44e43c4"><path d="M 18 7.050781 L 49 7.050781 L 49 41 L 18 41 Z M 18 7.050781 " clip-rule="nonzero"/></clipPath></defs><g clip-path="url(#a55bb4f99a)"><path fill="#ffffff" d="M 0 0 L 70.507812 0 L 70.507812 70.507812 L 0 70.507812 Z M 0 0 " fill-opacity="1" fill-rule="nonzero"/><path fill="#ffffff" d="M 0 0 L 70.507812 0 L 70.507812 70.507812 L 0 70.507812 Z M 0 0 " fill-opacity="1" fill-rule="nonzero"/></g><path fill="#a44ffc" d="M 34.769531 11.921875 C 34.769531 12.097656 34.734375 12.265625 34.667969 12.425781 C 34.601562 12.589844 34.507812 12.730469 34.382812 12.855469 C 34.261719 12.980469 34.117188 13.074219 33.957031 13.140625 C 33.796875 13.207031 33.628906 13.242188 33.457031 13.242188 C 33.28125 13.242188 33.113281 13.207031 32.953125 13.140625 C 32.792969 13.074219 32.652344 12.980469 32.527344 12.855469 C 32.40625 12.730469 32.308594 12.589844 32.242188 12.425781 C 32.175781 12.265625 32.144531 12.097656 32.144531 11.921875 C 32.144531 11.746094 32.175781 11.578125 32.242188 11.414062 C 32.308594 11.253906 32.40625 11.109375 32.527344 10.988281 C 32.652344 10.863281 32.792969 10.769531 32.953125 10.699219 C 33.113281 10.632812 33.28125 10.601562 33.457031 10.601562 C 33.628906 10.601562 33.796875 10.632812 33.957031 10.699219 C 34.117188 10.769531 34.261719 10.863281 34.382812 10.988281 C 34.507812 11.109375 34.601562 11.253906 34.667969 11.414062 C 34.734375 11.578125 34.769531 11.746094 34.769531 11.921875 Z M 34.769531 11.921875 " fill-opacity="1" fill-rule="nonzero"/><path fill="#a44ffc" d="M 29.519531 59.027344 C 29.519531 59.511719 29.914062 59.90625 30.394531 59.90625 L 36.515625 59.90625 C 36.996094 59.90625 37.390625 59.511719 37.390625 59.027344 C 37.390625 58.542969 36.996094 58.144531 36.515625 58.144531 L 30.394531 58.144531 C 29.914062 58.144531 29.519531 58.542969 29.519531 59.027344 Z M 29.519531 59.027344 " fill-opacity="1" fill-rule="nonzero"/><g clip-path="url(#fa67d16425)"><path fill="#a44ffc" d="M 61.050781 25.613281 L 58.46875 25.171875 C 58.25 24.292969 57.902344 23.410156 57.417969 22.617188 L 58.949219 20.460938 C 59.210938 20.109375 59.167969 19.625 58.863281 19.316406 L 57.070312 17.511719 C 56.765625 17.203125 56.28125 17.160156 55.933594 17.425781 L 53.789062 18.964844 C 53.003906 18.480469 52.128906 18.128906 51.253906 17.910156 L 50.816406 15.3125 C 50.730469 14.871094 50.378906 14.5625 49.941406 14.5625 L 47.40625 14.5625 C 46.96875 14.5625 46.617188 14.871094 46.53125 15.3125 L 46.09375 17.910156 C 45.21875 18.128906 44.34375 18.480469 43.558594 18.964844 L 41.414062 17.425781 C 41.066406 17.160156 40.582031 17.203125 40.277344 17.511719 L 38.484375 19.316406 C 38.179688 19.625 38.136719 20.109375 38.398438 20.460938 L 39.929688 22.617188 C 39.445312 23.410156 39.097656 24.292969 38.878906 25.171875 L 36.296875 25.613281 C 35.859375 25.699219 35.554688 26.054688 35.554688 26.492188 L 35.554688 29.046875 C 35.554688 29.488281 35.859375 29.839844 36.296875 29.925781 L 38.878906 30.367188 C 39.097656 31.246094 39.445312 32.128906 39.929688 32.921875 L 38.398438 35.078125 C 38.136719 35.429688 38.179688 35.914062 38.484375 36.222656 L 40.277344 38.027344 C 40.582031 38.335938 41.066406 38.378906 41.414062 38.117188 L 43.558594 36.574219 C 44.34375 37.058594 45.21875 37.410156 46.09375 37.632812 L 46.53125 40.230469 C 46.617188 40.667969 46.96875 40.976562 47.40625 40.976562 L 49.941406 40.976562 C 50.378906 40.976562 50.730469 40.667969 50.816406 40.230469 L 51.253906 37.632812 C 52.128906 37.410156 53.003906 37.058594 53.789062 36.574219 L 55.933594 38.117188 C 56.28125 38.378906 56.765625 38.335938 57.070312 38.027344 L 58.863281 36.222656 C 59.167969 35.914062 59.210938 35.429688 58.949219 35.078125 L 57.417969 32.921875 C 57.902344 32.128906 58.25 31.246094 58.46875 30.367188 L 61.050781 29.925781 C 61.488281 29.839844 61.792969 29.488281 61.792969 29.046875 L 61.792969 26.492188 C 61.792969 26.054688 61.488281 25.699219 61.050781 25.613281 Z M 60.042969 28.296875 L 57.59375 28.695312 C 57.246094 28.738281 56.9375 29.046875 56.894531 29.398438 C 56.675781 30.5 56.238281 31.511719 55.625 32.4375 C 55.40625 32.746094 55.40625 33.140625 55.625 33.449219 L 57.070312 35.472656 L 56.328125 36.222656 L 54.316406 34.769531 C 54.007812 34.550781 53.617188 34.550781 53.308594 34.769531 C 52.390625 35.386719 51.386719 35.828125 50.292969 36.046875 C 49.941406 36.132812 49.636719 36.398438 49.59375 36.75 L 49.199219 39.214844 L 48.148438 39.214844 L 47.753906 36.75 C 47.710938 36.398438 47.40625 36.089844 47.054688 36.046875 C 45.960938 35.828125 44.957031 35.386719 44.039062 34.769531 C 43.730469 34.550781 43.339844 34.550781 43.03125 34.769531 L 41.019531 36.222656 L 40.277344 35.472656 L 41.722656 33.449219 C 41.941406 33.140625 41.941406 32.746094 41.722656 32.4375 C 41.109375 31.511719 40.671875 30.5 40.453125 29.398438 C 40.363281 29.046875 40.101562 28.738281 39.753906 28.695312 L 37.304688 28.296875 L 37.304688 27.242188 L 39.753906 26.84375 C 40.101562 26.800781 40.410156 26.492188 40.453125 26.140625 C 40.671875 25.039062 41.109375 24.027344 41.722656 23.101562 C 41.941406 22.796875 41.941406 22.398438 41.722656 22.089844 L 40.277344 20.066406 L 41.019531 19.316406 L 43.03125 20.769531 C 43.339844 20.988281 43.730469 20.988281 44.039062 20.769531 C 44.957031 20.152344 45.960938 19.714844 47.054688 19.492188 C 47.40625 19.40625 47.710938 19.140625 47.753906 18.789062 L 48.148438 16.324219 L 49.199219 16.324219 L 49.59375 18.789062 C 49.636719 19.140625 49.941406 19.449219 50.292969 19.492188 C 51.386719 19.714844 52.390625 20.152344 53.308594 20.769531 C 53.617188 20.988281 54.007812 20.988281 54.316406 20.769531 L 56.328125 19.316406 L 57.070312 20.066406 L 55.625 22.089844 C 55.40625 22.398438 55.40625 22.796875 55.625 23.101562 C 56.238281 24.027344 56.675781 25.039062 56.894531 26.140625 C 56.980469 26.492188 57.246094 26.800781 57.59375 26.84375 L 60.042969 27.242188 Z M 60.042969 28.296875 " fill-opacity="1" fill-rule="nonzero"/></g><path fill="#a44ffc" d="M 48.671875 22.488281 C 45.789062 22.488281 43.425781 24.863281 43.425781 27.769531 C 43.425781 30.675781 45.789062 33.050781 48.671875 33.050781 C 51.558594 33.050781 53.921875 30.675781 53.921875 27.769531 C 53.921875 24.863281 51.558594 22.488281 48.671875 22.488281 Z M 48.671875 31.292969 C 46.75 31.292969 45.175781 29.707031 45.175781 27.769531 C 45.175781 25.832031 46.75 24.246094 48.671875 24.246094 C 50.597656 24.246094 52.171875 25.832031 52.171875 27.769531 C 52.171875 29.707031 50.597656 31.292969 48.671875 31.292969 Z M 48.671875 31.292969 " fill-opacity="1" fill-rule="nonzero"/><g clip-path="url(#ce2846529c)"><path fill="#a44ffc" d="M 29.039062 53.390625 C 31.183594 51.191406 31.792969 47.933594 30.570312 45.113281 C 30.4375 44.851562 30.21875 44.632812 29.914062 44.585938 C 29.609375 44.542969 29.34375 44.632812 29.125 44.851562 L 25.847656 48.195312 L 23.835938 48.109375 L 23.746094 46.039062 L 27.070312 42.648438 C 27.289062 42.429688 27.378906 42.164062 27.289062 41.859375 C 27.246094 41.59375 27.070312 41.328125 26.808594 41.195312 C 24.011719 39.875 20.6875 40.492188 18.5 42.695312 C 16.3125 44.9375 15.613281 48.152344 16.707031 50.839844 L 8.703125 59.113281 C 8.355469 59.46875 8.355469 60.039062 8.703125 60.347656 C 9.054688 60.65625 9.625 60.699219 9.929688 60.347656 L 18.457031 51.675781 C 18.71875 51.410156 18.804688 50.96875 18.585938 50.664062 C 17.496094 48.503906 17.976562 45.820312 19.8125 43.96875 C 21.167969 42.605469 23.046875 42.035156 24.886719 42.429688 L 22.261719 45.113281 C 22.085938 45.292969 22 45.511719 22 45.777344 L 22.128906 49.035156 C 22.128906 49.472656 22.523438 49.871094 22.960938 49.871094 L 26.152344 50 C 26.414062 50 26.632812 49.914062 26.808594 49.738281 L 29.34375 47.140625 C 29.652344 48.945312 29.082031 50.839844 27.769531 52.160156 C 26.066406 53.921875 23.222656 54.273438 20.949219 53.082031 C 20.597656 52.90625 20.207031 52.953125 19.898438 53.257812 L 11.460938 61.933594 C 11.109375 62.285156 11.109375 62.855469 11.460938 63.164062 C 11.636719 63.339844 11.855469 63.429688 12.070312 63.429688 C 12.289062 63.429688 12.507812 63.339844 12.683594 63.164062 L 20.773438 54.933594 C 23.574219 56.121094 26.941406 55.550781 29.039062 53.390625 Z M 29.039062 53.390625 " fill-opacity="1" fill-rule="nonzero"/></g><g clip-path="url(#643851b895)"><path fill="#a44ffc" d="M 46.09375 63.429688 C 46.792969 63.429688 47.449219 63.164062 47.929688 62.636719 C 48.410156 62.152344 48.671875 61.492188 48.671875 60.789062 L 48.671875 42.738281 L 47.40625 42.738281 C 47.230469 42.738281 47.097656 42.738281 46.925781 42.695312 L 46.925781 60.789062 C 46.925781 61.007812 46.835938 61.226562 46.664062 61.402344 C 46.488281 61.582031 46.3125 61.667969 46.050781 61.667969 L 20.6875 61.667969 C 20.164062 61.667969 19.8125 61.226562 19.769531 61.050781 L 19.769531 58.410156 L 18.019531 60.214844 L 18.019531 61.140625 C 18.019531 61.183594 18.019531 61.226562 18.019531 61.226562 C 18.152344 62.285156 19.242188 63.429688 20.6875 63.429688 Z M 46.09375 63.429688 " fill-opacity="1" fill-rule="nonzero"/></g><g clip-path="url(#8ee44e43c4)"><path fill="#a44ffc" d="M 46.925781 9.765625 L 46.925781 12.847656 C 47.097656 12.800781 47.230469 12.800781 47.40625 12.800781 L 48.671875 12.800781 L 48.671875 9.765625 C 48.671875 8.265625 47.097656 7.078125 45.742188 7.078125 L 20.6875 7.078125 C 19.242188 7.078125 18.152344 8.265625 18.0625 9.984375 C 18.0625 9.984375 18.0625 10.027344 18.0625 10.027344 L 18.0625 40.800781 C 18.585938 40.359375 19.199219 40.007812 19.8125 39.699219 L 19.8125 10.074219 C 19.855469 9.324219 20.207031 8.839844 20.6875 8.839844 L 45.742188 8.839844 C 46.269531 8.839844 46.925781 9.367188 46.925781 9.765625 Z M 46.925781 9.765625 " fill-opacity="1" fill-rule="nonzero"/></g></svg>