<svg xmlns="http://www.w3.org/2000/svg" xmlns:xlink="http://www.w3.org/1999/xlink" width="95" zoomAndPan="magnify" viewBox="0 0 71.25 71.25" height="95" preserveAspectRatio="xMidYMid meet" version="1.0"><defs><clipPath id="68be5970d1"><path d="M 0 0 L 70.507812 0 L 70.507812 70.507812 L 0 70.507812 Z M 0 0 " clip-rule="nonzero"/></clipPath><clipPath id="1173f2d53b"><path d="M 34 7.050781 L 57 7.050781 L 57 25 L 34 25 Z M 34 7.050781 " clip-rule="nonzero"/></clipPath><clipPath id="6549df2f6c"><path d="M 13.148438 27.359375 L 57.679688 27.359375 L 57.679688 63.445312 L 13.148438 63.445312 Z M 13.148438 27.359375 " clip-rule="nonzero"/></clipPath></defs><g clip-path="url(#68be5970d1)"><path fill="#ffffff" d="M 0 0 L 70.507812 0 L 70.507812 70.507812 L 0 70.507812 Z M 0 0 " fill-opacity="1" fill-rule="nonzero"/><path fill="#ffffff" d="M 0 0 L 70.507812 0 L 70.507812 70.507812 L 0 70.507812 Z M 0 0 " fill-opacity="1" fill-rule="nonzero"/></g><path fill="#a44ffc" d="M 23.050781 55.53125 C 22.855469 55.730469 22.578125 55.859375 22.273438 55.859375 C 21.96875 55.859375 21.691406 55.730469 21.492188 55.53125 C 21.296875 55.332031 21.175781 55.054688 21.175781 54.753906 C 21.175781 54.453125 21.296875 54.175781 21.492188 53.976562 C 21.691406 53.777344 21.96875 53.652344 22.273438 53.652344 C 22.578125 53.652344 22.855469 53.777344 23.050781 53.976562 C 23.25 54.175781 23.371094 54.453125 23.371094 54.753906 C 23.371094 55.054688 23.25 55.332031 23.050781 55.53125 Z M 24.425781 54.285156 L 23.277344 48.066406 L 21.269531 48.066406 L 20.121094 54.289062 C 20.082031 54.449219 20.054688 54.625 20.054688 54.808594 C 20.054688 55.421875 20.300781 55.980469 20.703125 56.382812 C 21.101562 56.785156 21.660156 57.039062 22.273438 57.039062 C 22.886719 57.039062 23.445312 56.785156 23.84375 56.382812 C 24.242188 55.980469 24.492188 55.421875 24.488281 54.808594 C 24.488281 54.625 24.464844 54.449219 24.425781 54.285156 " fill-opacity="1" fill-rule="nonzero"/><path fill="#a44ffc" d="M 33.414062 20.625 L 33.414062 10.929688 L 29.433594 11.550781 L 29.433594 13.539062 L 23.773438 13.539062 C 21.707031 13.542969 20.023438 15.214844 20.019531 17.269531 L 20.019531 22.59375 L 24.527344 22.59375 L 24.527344 18.015625 L 29.433594 18.015625 L 29.433594 20.003906 L 33.414062 20.625 " fill-opacity="1" fill-rule="nonzero"/><g clip-path="url(#1173f2d53b)"><path fill="#a44ffc" d="M 51.570312 18.695312 C 50.777344 19.089844 50.058594 19.386719 49.394531 19.597656 C 48.492188 19.882812 47.683594 20.015625 46.847656 20.015625 C 46.097656 20.015625 45.324219 19.90625 44.414062 19.683594 C 43.210938 19.382812 41.382812 18.730469 39.269531 17.84375 C 38.804688 17.648438 38.328125 17.445312 37.851562 17.234375 L 37.851562 14.320312 C 38.425781 14.066406 39.140625 13.761719 39.914062 13.445312 C 41.773438 12.6875 43.328125 12.144531 44.417969 11.871094 C 45.324219 11.644531 46.097656 11.539062 46.847656 11.539062 C 47.683594 11.542969 48.492188 11.671875 49.394531 11.957031 C 50.058594 12.167969 50.777344 12.464844 51.570312 12.859375 Z M 54.9375 9.570312 C 53.40625 8.707031 52.039062 8.09375 50.761719 7.691406 C 49.425781 7.269531 48.144531 7.0625 46.847656 7.0625 C 45.730469 7.0625 44.578125 7.214844 43.316406 7.53125 C 41.859375 7.894531 39.910156 8.585938 37.519531 9.585938 C 36.515625 10.003906 35.632812 10.398438 35.015625 10.679688 L 34.917969 10.691406 L 34.917969 20.859375 L 35.011719 20.875 C 35.554688 21.125 36.460938 21.527344 37.519531 21.96875 C 39.90625 22.96875 41.859375 23.660156 43.316406 24.023438 C 44.578125 24.339844 45.734375 24.492188 46.847656 24.492188 L 46.851562 24.492188 C 48.144531 24.492188 49.425781 24.285156 50.761719 23.863281 C 52.039062 23.460938 53.40625 22.84375 54.9375 21.984375 L 56.078125 21.339844 L 56.078125 10.210938 L 54.9375 9.570312 " fill-opacity="1" fill-rule="nonzero"/></g><path fill="#a44ffc" d="M 24.460938 27.59375 L 22.273438 23.433594 L 20.085938 27.59375 C 19.894531 27.945312 19.78125 28.347656 19.78125 28.777344 C 19.78125 30.140625 20.898438 31.25 22.273438 31.25 C 23.648438 31.25 24.765625 30.140625 24.765625 28.777344 C 24.765625 28.347656 24.652344 27.941406 24.460938 27.59375 " fill-opacity="1" fill-rule="nonzero"/><g clip-path="url(#6549df2f6c)"><path fill="#a44ffc" d="M 53.160156 39.957031 L 53.160156 42.160156 L 50.902344 42.160156 C 51.714844 43.539062 52.273438 45.050781 52.554688 46.636719 L 53.160156 46.636719 L 53.160156 58.96875 L 48.457031 58.96875 C 45.992188 61.265625 42.8125 62.523438 39.445312 62.523438 C 36.074219 62.523438 32.898438 61.265625 30.433594 58.96875 L 17.660156 58.96875 L 17.660156 46.636719 L 26.335938 46.636719 C 26.617188 45.050781 27.171875 43.539062 27.984375 42.160156 L 17.664062 42.160156 L 17.664062 39.976562 L 17.660156 39.910156 C 17.660156 39.828125 17.683594 39.703125 17.710938 39.632812 C 17.769531 39.613281 17.894531 39.589844 18.089844 39.589844 L 29.953125 39.589844 C 29.980469 39.5625 30.003906 39.53125 30.035156 39.503906 C 32.550781 36.964844 35.890625 35.566406 39.445312 35.566406 C 42.996094 35.566406 46.339844 36.964844 48.855469 39.503906 C 48.882812 39.53125 48.90625 39.558594 48.9375 39.589844 L 52.734375 39.589844 C 52.953125 39.589844 53.066406 39.617188 53.117188 39.632812 C 53.121094 39.652344 53.132812 39.675781 53.140625 39.710938 C 53.160156 39.785156 53.164062 39.859375 53.167969 39.921875 Z M 35.046875 32.132812 L 43.984375 32.132812 L 44.691406 35.109375 L 34.339844 35.109375 Z M 56.941406 37.253906 C 56.535156 36.597656 55.960938 36.0625 55.289062 35.703125 C 54.554688 35.3125 53.695312 35.109375 52.734375 35.109375 L 49.535156 35.109375 L 48.058594 30.183594 C 47.773438 29.464844 47.257812 28.839844 46.5625 28.367188 C 45.875 27.90625 45.101562 27.660156 44.320312 27.65625 L 34.703125 27.65625 C 33.929688 27.660156 33.15625 27.90625 32.457031 28.375 C 31.769531 28.84375 31.257812 29.46875 30.96875 30.1875 L 29.496094 35.109375 L 25.847656 35.109375 L 25.847656 32.390625 L 18.617188 32.390625 L 18.617188 35.128906 C 16.847656 35.183594 16.152344 35.375 15.542969 35.703125 C 15.011719 35.984375 14.558594 36.363281 14.1875 36.824219 C 13.769531 37.351562 13.472656 37.96875 13.300781 38.660156 C 13.203125 39.078125 13.148438 39.503906 13.148438 39.925781 C 13.148438 40.007812 13.152344 40.078125 13.15625 40.125 L 13.152344 44.847656 L 13.152344 63.445312 L 57.671875 63.445312 L 57.671875 40.128906 C 57.675781 40.078125 57.679688 40.003906 57.679688 39.910156 C 57.667969 38.9375 57.414062 38.023438 56.941406 37.253906 " fill-opacity="1" fill-rule="nonzero"/></g><path fill="#a44ffc" d="M 45.09375 54.800781 C 43.582031 56.324219 41.574219 57.164062 39.445312 57.164062 C 37.3125 57.164062 35.308594 56.324219 33.796875 54.800781 C 32.273438 53.265625 31.4375 51.21875 31.4375 49.042969 C 31.4375 46.871094 32.277344 44.824219 33.796875 43.289062 C 35.308594 41.765625 37.3125 40.925781 39.445312 40.925781 C 41.574219 40.925781 43.582031 41.765625 45.09375 43.289062 C 46.613281 44.824219 47.449219 46.871094 47.449219 49.042969 C 47.449219 51.21875 46.613281 53.265625 45.09375 54.800781 Z M 39.445312 37.058594 C 36.296875 37.058594 33.335938 38.300781 31.105469 40.550781 C 28.863281 42.816406 27.625 45.832031 27.625 49.042969 C 27.625 52.257812 28.863281 55.273438 31.105469 57.539062 C 33.335938 59.792969 36.296875 61.03125 39.445312 61.03125 C 42.589844 61.03125 45.550781 59.792969 47.785156 57.539062 C 50.027344 55.273438 51.265625 52.257812 51.265625 49.042969 C 51.265625 45.832031 50.027344 42.816406 47.785156 40.550781 C 45.554688 38.300781 42.589844 37.058594 39.445312 37.058594 " fill-opacity="1" fill-rule="nonzero"/></svg>