<svg xmlns="http://www.w3.org/2000/svg" xmlns:xlink="http://www.w3.org/1999/xlink" width="95" zoomAndPan="magnify" viewBox="0 0 71.25 71.25" height="95" preserveAspectRatio="xMidYMid meet" version="1.0"><defs><clipPath id="ac93a323c2"><path d="M 0 0 L 70.507812 0 L 70.507812 70.507812 L 0 70.507812 Z M 0 0 " clip-rule="nonzero"/></clipPath><clipPath id="b02ca5c6b2"><path d="M 10.023438 7.050781 L 60.492188 7.050781 L 60.492188 63.457031 L 10.023438 63.457031 Z M 10.023438 7.050781 " clip-rule="nonzero"/></clipPath></defs><g clip-path="url(#ac93a323c2)"><path fill="#ffffff" d="M 0 0 L 70.507812 0 L 70.507812 70.507812 L 0 70.507812 Z M 0 0 " fill-opacity="1" fill-rule="nonzero"/><path fill="#ffffff" d="M 0 0 L 70.507812 0 L 70.507812 70.507812 L 0 70.507812 Z M 0 0 " fill-opacity="1" fill-rule="nonzero"/></g><g clip-path="url(#b02ca5c6b2)"><path fill="#a44ffc" d="M 60.335938 54.972656 L 60.335938 35 C 60.335938 33.871094 60.480469 32.605469 59.90625 31.582031 C 59.292969 30.496094 58.136719 29.875 56.902344 29.875 C 56.441406 29.875 55.984375 29.875 55.523438 29.875 L 37.546875 29.875 C 37 29.875 36.46875 29.964844 35.980469 30.167969 L 35.980469 10.191406 C 35.980469 8.460938 34.574219 7.054688 32.839844 7.054688 L 13.1875 7.054688 C 11.453125 7.054688 10.046875 8.460938 10.046875 10.191406 L 10.046875 32.3125 C 10.976562 32.285156 11.914062 32.316406 12.84375 32.316406 L 33.679688 32.316406 C 33.953125 32.316406 33.953125 32.738281 33.679688 32.738281 C 33.667969 32.738281 33.992188 32.738281 33.980469 32.738281 C 33.007812 32.773438 32.027344 32.738281 31.054688 32.738281 L 10.046875 32.738281 L 10.046875 60.3125 C 10.046875 62.046875 11.453125 63.453125 13.1875 63.453125 L 32.839844 63.453125 C 33.710938 63.453125 34.496094 63.101562 35.0625 62.53125 C 35.425781 62.867188 35.863281 63.128906 36.355469 63.28125 C 36.871094 63.4375 37.390625 63.425781 37.921875 63.425781 L 56.984375 63.425781 C 58.746094 63.410156 60.234375 62.019531 60.332031 60.25 C 60.347656 59.984375 60.335938 59.71875 60.335938 59.453125 L 60.335938 54.96875 Z M 15.824219 21.589844 L 15.824219 25.820312 C 15.824219 26.773438 15.046875 27.476562 14.128906 27.519531 C 13.210938 27.558594 12.429688 26.710938 12.429688 25.820312 L 12.429688 20.984375 C 12.429688 20.035156 13.207031 19.328125 14.128906 19.289062 C 15.042969 19.25 15.824219 20.097656 15.824219 20.984375 Z M 15.824219 37.585938 L 15.824219 41.816406 C 15.824219 42.769531 15.046875 43.472656 14.128906 43.515625 C 13.210938 43.554688 12.429688 42.707031 12.429688 41.816406 L 12.429688 36.980469 C 12.429688 36.03125 13.207031 35.328125 14.128906 35.285156 C 15.042969 35.246094 15.824219 36.09375 15.824219 36.980469 Z M 37.578125 30.296875 L 56.863281 30.296875 C 58 30.296875 59.039062 30.847656 59.582031 31.871094 C 59.867188 32.410156 59.914062 32.984375 59.914062 33.574219 L 59.914062 35.441406 L 37.375 35.441406 C 36.386719 35.441406 35.390625 35.414062 34.402344 35.4375 L 34.402344 33.441406 C 34.402344 32.613281 34.617188 31.832031 35.203125 31.214844 C 35.757812 30.628906 36.523438 30.304688 37.332031 30.296875 C 37.414062 30.296875 37.496094 30.296875 37.578125 30.296875 Z M 33.988281 60.296875 C 33.980469 60.21875 33.980469 60.136719 33.976562 60.058594 C 33.976562 60.140625 33.980469 60.21875 33.988281 60.296875 Z M 33.980469 33.210938 C 33.980469 33.210938 33.980469 33.199219 33.980469 33.195312 C 33.980469 33.199219 33.980469 33.207031 33.980469 33.210938 Z M 34.070312 60.820312 C 34.054688 60.757812 34.042969 60.695312 34.03125 60.628906 C 34.042969 60.695312 34.054688 60.757812 34.070312 60.820312 Z M 34.023438 60.589844 C 34.011719 60.515625 34 60.4375 33.992188 60.359375 C 34 60.4375 34.011719 60.515625 34.023438 60.589844 Z M 34.226562 61.308594 C 34.207031 61.265625 34.191406 61.222656 34.175781 61.179688 C 34.191406 61.222656 34.207031 61.265625 34.226562 61.308594 Z M 34.148438 61.097656 C 34.125 61.03125 34.105469 60.964844 34.089844 60.894531 C 34.105469 60.964844 34.125 61.03125 34.148438 61.097656 Z M 35.148438 30.683594 C 35.175781 30.660156 35.203125 30.636719 35.230469 30.613281 C 35.203125 30.636719 35.175781 30.660156 35.148438 30.683594 Z M 35.289062 30.570312 C 35.3125 30.550781 35.335938 30.53125 35.363281 30.515625 C 35.335938 30.53125 35.3125 30.550781 35.289062 30.570312 Z M 35.710938 30.296875 C 35.722656 30.292969 35.730469 30.289062 35.742188 30.28125 C 35.730469 30.289062 35.722656 30.292969 35.710938 30.296875 Z M 35.425781 30.46875 C 35.449219 30.453125 35.472656 30.441406 35.496094 30.425781 C 35.472656 30.441406 35.449219 30.453125 35.425781 30.46875 Z M 35.566406 30.378906 C 35.585938 30.367188 35.609375 30.355469 35.625 30.34375 C 35.609375 30.355469 35.585938 30.367188 35.566406 30.378906 Z M 35.101562 30.71875 C 35.0625 30.757812 35.019531 30.796875 34.976562 30.835938 C 34.53125 31.273438 34.246094 31.804688 34.101562 32.378906 C 34.246094 31.804688 34.535156 31.273438 34.976562 30.835938 C 35.019531 30.796875 35.0625 30.757812 35.101562 30.71875 Z M 34.265625 61.40625 C 34.285156 61.453125 34.308594 61.5 34.332031 61.546875 C 34.308594 61.5 34.289062 61.453125 34.265625 61.40625 Z M 34.40625 61.691406 C 34.417969 61.710938 34.429688 61.730469 34.445312 61.753906 C 34.429688 61.730469 34.421875 61.710938 34.40625 61.691406 Z M 34.707031 62.144531 C 34.710938 62.148438 34.71875 62.15625 34.722656 62.160156 C 34.71875 62.15625 34.710938 62.148438 34.707031 62.144531 Z M 59.910156 60.070312 C 59.898438 61.679688 58.589844 62.984375 56.980469 63 L 38 63 C 37.566406 63 37.117188 63.027344 36.691406 62.929688 C 35.34375 62.625 34.40625 61.414062 34.402344 60.042969 C 34.402344 59.738281 34.402344 59.4375 34.402344 59.132812 L 34.402344 35.867188 L 56.9375 35.867188 C 57.929688 35.867188 58.921875 35.898438 59.910156 35.875 L 59.910156 57.519531 C 59.910156 58.371094 59.917969 59.222656 59.910156 60.070312 Z M 59.910156 60.070312 " fill-opacity="1" fill-rule="nonzero"/></g><path fill="#a44ffc" d="M 54.152344 41.128906 C 53.777344 40.742188 53.367188 40.410156 52.941406 40.085938 C 52.167969 39.492188 51.300781 39.0625 50.390625 38.726562 C 46.691406 37.367188 42.21875 38.574219 39.71875 41.625 C 39.378906 42.039062 39.054688 42.464844 38.78125 42.921875 C 38.496094 43.394531 38.273438 43.894531 38.066406 44.40625 C 37.695312 45.320312 37.507812 46.289062 37.425781 47.273438 C 37.269531 49.238281 37.78125 51.296875 38.808594 52.976562 C 39.792969 54.585938 41.269531 55.964844 42.996094 56.742188 C 43.492188 56.964844 43.996094 57.171875 44.515625 57.320312 C 45.070312 57.476562 45.640625 57.558594 46.214844 57.625 C 47.203125 57.742188 48.207031 57.65625 49.183594 57.464844 C 52.976562 56.714844 56.167969 53.441406 56.757812 49.609375 C 56.84375 49.050781 56.910156 48.492188 56.914062 47.925781 C 56.90625 45.96875 56.316406 43.964844 55.164062 42.367188 C 54.855469 41.933594 54.523438 41.511719 54.152344 41.128906 Z M 53.472656 48.789062 C 53.378906 49.339844 53.230469 49.878906 53.03125 50.398438 C 52.808594 50.882812 52.542969 51.34375 52.234375 51.773438 C 51.867188 52.222656 51.457031 52.636719 51.007812 53 C 50.574219 53.308594 50.113281 53.578125 49.628906 53.796875 C 49.109375 54 48.570312 54.148438 48.019531 54.238281 C 47.445312 54.296875 46.867188 54.296875 46.292969 54.238281 C 45.742188 54.148438 45.203125 54 44.683594 53.796875 C 44.199219 53.578125 43.738281 53.308594 43.308594 53 C 42.855469 52.636719 42.445312 52.222656 42.082031 51.773438 C 41.769531 51.34375 41.503906 50.882812 41.28125 50.398438 C 41.082031 49.878906 40.933594 49.339844 40.84375 48.789062 C 40.804688 48.425781 40.789062 48.058594 40.800781 47.695312 C 40.988281 47.8125 41.164062 47.964844 41.34375 48.132812 C 41.753906 48.519531 42.195312 48.789062 42.773438 48.816406 C 43.355469 48.839844 43.847656 48.617188 44.273438 48.234375 C 44.652344 47.894531 44.984375 47.53125 45.519531 47.46875 C 46.117188 47.402344 46.554688 47.652344 46.972656 48.046875 C 47.363281 48.414062 47.753906 48.726562 48.300781 48.796875 C 48.890625 48.875 49.429688 48.707031 49.882812 48.332031 C 50.261719 48.019531 50.566406 47.621094 51.066406 47.5 C 51.71875 47.34375 52.238281 47.613281 52.699219 48.046875 C 52.953125 48.285156 53.203125 48.484375 53.484375 48.621094 C 53.480469 48.675781 53.476562 48.730469 53.46875 48.789062 Z M 43.308594 42.851562 C 43.738281 42.542969 44.199219 42.273438 44.683594 42.054688 C 45.203125 41.851562 45.742188 41.707031 46.292969 41.613281 C 46.867188 41.554688 47.445312 41.554688 48.019531 41.613281 C 48.570312 41.707031 49.109375 41.851562 49.628906 42.054688 C 50.113281 42.273438 50.574219 42.542969 51.007812 42.851562 C 51.457031 43.21875 51.867188 43.628906 52.234375 44.078125 C 52.542969 44.511719 52.808594 44.972656 53.03125 45.453125 C 53.230469 45.976562 53.378906 46.511719 53.472656 47.0625 C 53.5 47.351562 53.515625 47.636719 53.519531 47.925781 C 53.519531 48.003906 53.515625 48.078125 53.511719 48.15625 C 53.324219 48.039062 53.148438 47.886719 52.96875 47.71875 C 52.558594 47.332031 52.117188 47.058594 51.539062 47.035156 C 50.953125 47.011719 50.464844 47.234375 50.035156 47.617188 C 49.660156 47.957031 49.324219 48.320312 48.789062 48.382812 C 48.191406 48.445312 47.753906 48.199219 47.335938 47.804688 C 46.949219 47.4375 46.558594 47.125 46.011719 47.054688 C 45.421875 46.976562 44.878906 47.144531 44.425781 47.519531 C 44.046875 47.832031 43.742188 48.230469 43.246094 48.351562 C 42.59375 48.507812 42.070312 48.238281 41.613281 47.804688 C 41.359375 47.566406 41.109375 47.367188 40.828125 47.230469 C 40.832031 47.171875 40.835938 47.117188 40.84375 47.0625 C 40.933594 46.511719 41.082031 45.976562 41.28125 45.453125 C 41.503906 44.96875 41.769531 44.511719 42.082031 44.078125 C 42.445312 43.628906 42.855469 43.21875 43.308594 42.851562 Z M 43.308594 42.851562 " fill-opacity="1" fill-rule="nonzero"/><path fill="#a44ffc" d="M 53.421875 33.726562 C 53.753906 33.726562 54.023438 33.457031 54.023438 33.128906 C 54.023438 32.796875 53.753906 32.527344 53.421875 32.527344 C 53.09375 32.527344 52.824219 32.796875 52.824219 33.128906 C 52.824219 33.457031 53.09375 33.726562 53.421875 33.726562 Z M 53.421875 33.726562 " fill-opacity="1" fill-rule="nonzero"/><path fill="#a44ffc" d="M 55.730469 33.726562 C 56.0625 33.726562 56.328125 33.457031 56.328125 33.128906 C 56.328125 32.796875 56.0625 32.527344 55.730469 32.527344 C 55.398438 32.527344 55.128906 32.796875 55.128906 33.128906 C 55.128906 33.457031 55.398438 33.726562 55.730469 33.726562 Z M 55.730469 33.726562 " fill-opacity="1" fill-rule="nonzero"/><path fill="#a44ffc" d="M 36.667969 33.632812 L 41.53125 33.632812 C 41.804688 33.632812 41.804688 33.210938 41.53125 33.210938 L 36.667969 33.210938 C 36.394531 33.210938 36.394531 33.632812 36.667969 33.632812 Z M 36.667969 33.632812 " fill-opacity="1" fill-rule="nonzero"/></svg>