<svg xmlns="http://www.w3.org/2000/svg" xmlns:xlink="http://www.w3.org/1999/xlink" width="95" zoomAndPan="magnify" viewBox="0 0 71.25 71.25" height="95" preserveAspectRatio="xMidYMid meet" version="1.0"><defs><clipPath id="6a0ed8d7c9"><path d="M 0 0 L 70.507812 0 L 70.507812 70.507812 L 0 70.507812 Z M 0 0 " clip-rule="nonzero"/></clipPath><clipPath id="af5f7ca726"><path d="M 7.050781 7.050781 L 63.457031 7.050781 L 63.457031 63.457031 L 7.050781 63.457031 Z M 7.050781 7.050781 " clip-rule="nonzero"/></clipPath></defs><g clip-path="url(#6a0ed8d7c9)"><path fill="#ffffff" d="M 0 0 L 70.507812 0 L 70.507812 70.507812 L 0 70.507812 Z M 0 0 " fill-opacity="1" fill-rule="nonzero"/><path fill="#ffffff" d="M 0 0 L 70.507812 0 L 70.507812 70.507812 L 0 70.507812 Z M 0 0 " fill-opacity="1" fill-rule="nonzero"/></g><path fill="#a44ffc" d="M 35.253906 22.09375 L 12.691406 22.09375 L 12.691406 12.691406 L 35.253906 12.691406 Z M 37.132812 10.8125 L 10.8125 10.8125 L 10.8125 23.972656 L 37.132812 23.972656 L 37.132812 10.8125 " fill-opacity="1" fill-rule="nonzero"/><path fill="#a44ffc" d="M 26.792969 42.949219 L 26.792969 33.199219 C 28.476562 34.175781 29.613281 35.992188 29.613281 38.074219 C 29.613281 40.15625 28.476562 41.972656 26.792969 42.949219 Z M 24.914062 43.628906 C 24.605469 43.683594 24.292969 43.714844 23.972656 43.714844 C 23.652344 43.714844 23.339844 43.683594 23.03125 43.628906 L 23.03125 32.519531 C 23.339844 32.464844 23.652344 32.433594 23.972656 32.433594 C 24.292969 32.433594 24.605469 32.464844 24.914062 32.519531 Z M 21.152344 42.949219 C 19.46875 41.972656 18.332031 40.15625 18.332031 38.074219 C 18.332031 35.992188 19.46875 34.175781 21.152344 33.199219 Z M 26.792969 31.109375 L 26.792969 30.554688 L 21.152344 30.554688 L 21.152344 31.109375 C 18.402344 32.222656 16.453125 34.921875 16.453125 38.074219 C 16.453125 41.226562 18.402344 43.925781 21.152344 45.039062 L 21.152344 45.59375 L 26.792969 45.59375 L 26.792969 45.039062 C 29.542969 43.925781 31.492188 41.226562 31.492188 38.074219 C 31.492188 34.921875 29.542969 32.222656 26.792969 31.109375 " fill-opacity="1" fill-rule="nonzero"/><path fill="#a44ffc" d="M 24.914062 28.671875 L 24.914062 26.792969 L 23.03125 26.792969 L 23.03125 28.671875 L 24.914062 28.671875 " fill-opacity="1" fill-rule="nonzero"/><path fill="#a44ffc" d="M 16.660156 32.09375 L 17.992188 30.761719 L 16.660156 29.433594 L 15.332031 30.761719 L 16.660156 32.09375 " fill-opacity="1" fill-rule="nonzero"/><path fill="#a44ffc" d="M 12.691406 39.015625 L 14.570312 39.015625 L 14.570312 37.132812 L 12.691406 37.132812 L 12.691406 39.015625 " fill-opacity="1" fill-rule="nonzero"/><path fill="#a44ffc" d="M 15.332031 45.386719 L 16.660156 46.714844 L 17.992188 45.386719 L 16.660156 44.054688 L 15.332031 45.386719 " fill-opacity="1" fill-rule="nonzero"/><path fill="#a44ffc" d="M 23.03125 49.355469 L 24.914062 49.355469 L 24.914062 47.476562 L 23.03125 47.476562 L 23.03125 49.355469 " fill-opacity="1" fill-rule="nonzero"/><path fill="#a44ffc" d="M 29.953125 45.386719 L 31.285156 46.714844 L 32.613281 45.386719 L 31.285156 44.054688 L 29.953125 45.386719 " fill-opacity="1" fill-rule="nonzero"/><path fill="#a44ffc" d="M 33.375 39.015625 L 35.253906 39.015625 L 35.253906 37.132812 L 33.375 37.132812 L 33.375 39.015625 " fill-opacity="1" fill-rule="nonzero"/><path fill="#a44ffc" d="M 29.953125 30.761719 L 31.285156 32.09375 L 32.613281 30.761719 L 31.285156 29.433594 L 29.953125 30.761719 " fill-opacity="1" fill-rule="nonzero"/><path fill="#a44ffc" d="M 17.390625 18.332031 L 15.511719 18.332031 L 15.511719 20.210938 L 17.390625 20.210938 L 17.390625 18.332031 " fill-opacity="1" fill-rule="nonzero"/><path fill="#a44ffc" d="M 21.152344 17.390625 L 19.273438 17.390625 L 19.273438 20.210938 L 21.152344 20.210938 L 21.152344 17.390625 " fill-opacity="1" fill-rule="nonzero"/><path fill="#a44ffc" d="M 24.914062 16.453125 L 23.03125 16.453125 L 23.03125 20.210938 L 24.914062 20.210938 L 24.914062 16.453125 " fill-opacity="1" fill-rule="nonzero"/><path fill="#a44ffc" d="M 28.671875 15.511719 L 26.792969 15.511719 L 26.792969 20.210938 L 28.671875 20.210938 L 28.671875 15.511719 " fill-opacity="1" fill-rule="nonzero"/><path fill="#a44ffc" d="M 32.433594 14.570312 L 30.554688 14.570312 L 30.554688 20.210938 L 32.433594 20.210938 L 32.433594 14.570312 " fill-opacity="1" fill-rule="nonzero"/><g clip-path="url(#af5f7ca726)"><path fill="#a44ffc" d="M 11.75 52.175781 C 10.195312 52.175781 8.929688 50.914062 8.929688 49.355469 L 8.929688 11.75 C 8.929688 10.195312 10.195312 8.929688 11.75 8.929688 L 36.195312 8.929688 C 37.75 8.929688 39.015625 10.195312 39.015625 11.75 L 39.015625 49.355469 C 39.015625 50.914062 37.75 52.175781 36.195312 52.175781 Z M 46.535156 43.714844 L 46.535156 24.863281 L 48.414062 24.84375 L 48.414062 43.714844 Z M 46.535156 20.210938 L 48.414062 20.210938 L 48.414062 22.960938 L 46.535156 22.984375 Z M 57.816406 43.714844 L 57.816406 24.863281 L 59.695312 24.84375 L 59.695312 43.714844 Z M 57.816406 20.210938 L 59.695312 20.210938 L 59.695312 22.960938 L 57.816406 22.984375 Z M 60.636719 57.816406 C 60.117188 57.816406 59.695312 57.394531 59.695312 56.875 L 59.695312 45.59375 L 61.578125 45.59375 L 61.578125 24.820312 L 63.46875 24.796875 L 63.445312 22.914062 L 61.578125 22.9375 L 61.578125 18.332031 L 59.695312 18.332031 L 59.695312 15.511719 C 59.695312 14.992188 59.273438 14.570312 58.757812 14.570312 C 58.238281 14.570312 57.816406 14.992188 57.816406 15.511719 L 57.816406 18.332031 L 55.9375 18.332031 L 55.9375 23.007812 L 54.046875 23.03125 L 54.066406 24.914062 L 55.9375 24.890625 L 55.9375 45.59375 L 57.816406 45.59375 L 57.816406 56.875 C 57.816406 58.433594 59.078125 59.695312 60.636719 59.695312 C 61.15625 59.695312 61.578125 60.117188 61.578125 60.636719 C 61.578125 61.15625 61.15625 61.578125 60.636719 61.578125 L 23.03125 61.578125 C 21.476562 61.578125 20.210938 60.3125 20.210938 58.757812 L 20.210938 54.054688 L 27.734375 54.054688 L 27.734375 54.996094 C 27.734375 56.554688 28.996094 57.816406 30.554688 57.816406 L 49.355469 57.816406 C 50.914062 57.816406 52.175781 56.554688 52.175781 54.996094 C 52.175781 53.4375 50.914062 52.175781 49.355469 52.175781 C 48.835938 52.175781 48.414062 51.753906 48.414062 51.234375 L 48.414062 45.59375 L 50.296875 45.59375 L 50.296875 24.820312 L 52.1875 24.796875 L 52.164062 22.914062 L 50.296875 22.9375 L 50.296875 18.332031 L 48.414062 18.332031 L 48.414062 15.511719 C 48.414062 14.992188 47.992188 14.570312 47.476562 14.570312 C 46.957031 14.570312 46.535156 14.992188 46.535156 15.511719 L 46.535156 18.332031 L 44.65625 18.332031 L 44.65625 23.007812 L 42.765625 23.03125 L 42.785156 24.914062 L 44.65625 24.890625 L 44.65625 45.59375 L 46.535156 45.59375 L 46.535156 51.234375 C 46.535156 52.792969 47.796875 54.054688 49.355469 54.054688 C 49.875 54.054688 50.296875 54.476562 50.296875 54.996094 C 50.296875 55.515625 49.875 55.9375 49.355469 55.9375 L 30.554688 55.9375 C 30.035156 55.9375 29.613281 55.515625 29.613281 54.996094 L 29.613281 54.054688 L 36.195312 54.054688 C 38.785156 54.054688 40.894531 51.949219 40.894531 49.355469 L 40.894531 11.75 C 40.894531 9.160156 38.785156 7.050781 36.195312 7.050781 L 11.75 7.050781 C 9.160156 7.050781 7.050781 9.160156 7.050781 11.75 L 7.050781 49.355469 C 7.050781 51.949219 9.160156 54.054688 11.75 54.054688 L 18.332031 54.054688 L 18.332031 58.757812 C 18.332031 61.347656 20.441406 63.457031 23.03125 63.457031 L 60.636719 63.457031 C 62.195312 63.457031 63.457031 62.195312 63.457031 60.636719 C 63.457031 59.078125 62.195312 57.816406 60.636719 57.816406 " fill-opacity="1" fill-rule="nonzero"/></g></svg>