<svg xmlns="http://www.w3.org/2000/svg" xmlns:xlink="http://www.w3.org/1999/xlink" width="80" zoomAndPan="magnify" viewBox="0 0 60 60" height="80" preserveAspectRatio="xMidYMid meet" version="1.0"><defs><g/></defs><g fill="#5e17eb" fill-opacity="0.5098"><g transform="translate(2.141864, 56.669052)"><g><path d="M 54.84375 -52.21875 L 54.84375 -41.78125 L 13.0625 -41.78125 L 13.0625 -10.4375 L 44.390625 -10.4375 L 44.390625 -20.890625 L 23.5 -20.890625 L 23.5 -31.328125 L 54.84375 -31.328125 L 54.84375 -10.4375 C 54.84375 -8.570312 54.375 -6.84375 53.4375 -5.25 C 52.5 -3.664062 51.242188 -2.394531 49.671875 -1.4375 C 48.109375 -0.476562 46.347656 0 44.390625 0 L 13.0625 0 C 11.144531 0 9.390625 -0.46875 7.796875 -1.40625 C 6.210938 -2.34375 4.953125 -3.601562 4.015625 -5.1875 C 3.078125 -6.78125 2.609375 -8.53125 2.609375 -10.4375 L 2.609375 -41.78125 C 2.609375 -43.695312 3.078125 -45.445312 4.015625 -47.03125 C 4.953125 -48.625 6.210938 -49.882812 7.796875 -50.8125 C 9.390625 -51.75 11.144531 -52.21875 13.0625 -52.21875 Z M 54.84375 -52.21875 "/></g></g></g><g fill="#000000" fill-opacity="1"><g transform="translate(-0.585662, 53.418514)"><g><path d="M 54.84375 -52.21875 L 54.84375 -41.78125 L 13.0625 -41.78125 L 13.0625 -10.4375 L 44.390625 -10.4375 L 44.390625 -20.890625 L 23.5 -20.890625 L 23.5 -31.328125 L 54.84375 -31.328125 L 54.84375 -10.4375 C 54.84375 -8.570312 54.375 -6.84375 53.4375 -5.25 C 52.5 -3.664062 51.242188 -2.394531 49.671875 -1.4375 C 48.109375 -0.476562 46.347656 0 44.390625 0 L 13.0625 0 C 11.144531 0 9.390625 -0.46875 7.796875 -1.40625 C 6.210938 -2.34375 4.953125 -3.601562 4.015625 -5.1875 C 3.078125 -6.78125 2.609375 -8.53125 2.609375 -10.4375 L 2.609375 -41.78125 C 2.609375 -43.695312 3.078125 -45.445312 4.015625 -47.03125 C 4.953125 -48.625 6.210938 -49.882812 7.796875 -50.8125 C 9.390625 -51.75 11.144531 -52.21875 13.0625 -52.21875 Z M 54.84375 -52.21875 "/></g></g></g></svg>