<svg width="150" height="149" viewBox="0 0 150 149" fill="none" xmlns="http://www.w3.org/2000/svg">
<path d="M0 74.093C0 33.1726 33.1726 0 74.093 0H75.907C116.827 0 150 33.1726 150 74.093V74.093C150 115.013 116.827 148.186 75.907 148.186H74.093C33.1726 148.186 0 115.013 0 74.093V74.093Z" fill="white"/>
<g filter="url(#filter0_d_2973_37671)">
<path d="M67.5263 52.1555C64.193 50.204 60 52.6079 60 56.4704V91.7169C60 95.5792 64.1927 97.9832 67.5259 96.032L97.6292 78.4105C100.928 76.4796 100.928 71.7117 97.6296 69.7805L67.5263 52.1555Z" fill="#a44ffc"/>
</g>
<defs>
<filter id="filter0_d_2973_37671" x="52" y="45.4629" width="56.1033" height="61.2617" filterUnits="userSpaceOnUse" color-interpolation-filters="sRGB">
<feFlood flood-opacity="0" result="BackgroundImageFix"/>
<feColorMatrix in="SourceAlpha" type="matrix" values="0 0 0 0 0 0 0 0 0 0 0 0 0 0 0 0 0 0 127 0" result="hardAlpha"/>
<feOffset dy="2"/>
<feGaussianBlur stdDeviation="4"/>
<feComposite in2="hardAlpha" operator="out"/>
<feColorMatrix type="matrix" values="0 0 0 0 0.129412 0 0 0 0 0.121569 0 0 0 0 0.329412 0 0 0 0.06 0"/>
<feBlend mode="normal" in2="BackgroundImageFix" result="effect1_dropShadow_2973_37671"/>
<feBlend mode="normal" in="SourceGraphic" in2="effect1_dropShadow_2973_37671" result="shape"/>
</filter>
</defs>
</svg>
