<svg width="220" height="101" viewBox="0 0 220 101" fill="none" xmlns="http://www.w3.org/2000/svg">
<path d="M29.8833 -77.9893C30.4356 -77.9893 30.8833 -77.5415 30.8833 -76.9893V68.1846C30.8833 69.099 31.6246 69.8402 32.539 69.8402H278.715C279.267 69.8402 279.715 70.2879 279.715 70.8402V97.3964C279.715 97.9487 279.267 98.3964 278.715 98.3964H32.539C15.8534 98.3964 2.32715 84.8701 2.32715 68.1846V-76.9893C2.32715 -77.5415 2.77484 -77.9893 3.32715 -77.9893H29.8833Z" stroke="#1871F6" stroke-width="2" stroke-linejoin="round"/>
<path d="M194.443 68.2471H195.443V69.2471V98.99V99.99H194.443H187.539H186.539V98.99V69.2471V68.2471H187.539H194.443Z" fill="#a44ffc" stroke="#1871F6" stroke-width="2"/>
<path d="M51.3945 68.2471H52.3945V69.2471V98.99V99.99H51.3945H44.4899H43.4899V98.99V69.2471V68.2471H44.4899H51.3945Z" fill="#a44ffc" stroke="#1871F6" stroke-width="2"/>
<path d="M1 0.37793L1 -0.62207L2 -0.62207L31.7429 -0.622072L32.7429 -0.622072L32.7429 0.377928L32.7429 7.28254L32.7429 8.28254L31.7429 8.28254L2 8.28254L1 8.28254L1 7.28254L1 0.37793Z" fill="#a44ffc" stroke="#1871F6" stroke-width="2"/>
</svg>
