<svg width="100" height="100" viewBox="0 0 100 100" fill="none" xmlns="http://www.w3.org/2000/svg">
<rect width="100" height="100" fill="#3083FF"/>
<path d="M37.5748 52.7995C37.0333 52.7855 36.4918 52.8099 35.9503 52.8728L25.3686 54.1165C24.0201 54.2772 23 55.4231 23 56.7855V68.1044C23 68.9394 23.3773 69.7079 24.0341 70.2215C24.6874 70.7315 25.5258 70.9097 26.3328 70.7071L32.2018 69.2433C33.6971 68.873 35.2726 69.0581 36.6386 69.7778L47.8946 75.7062C49.0684 76.3246 50.354 76.632 51.6431 76.632C52.9147 76.632 54.1863 76.3351 55.3497 75.7307L74.3996 65.8511C75.7936 65.128 76.6599 63.7061 76.6599 62.1271C76.6599 60.824 76.066 59.6187 75.0355 58.8187C74.0049 58.0187 72.6843 57.7497 71.4232 58.0781L59.4301 61.1873C59.196 60.4886 58.7873 59.8493 58.2423 59.3428C57.334 58.4973 56.1113 58.0641 54.8746 58.155L52.9147 58.2947C52.1461 58.3506 51.3811 58.2074 50.6859 57.879L42.2701 53.9069C40.7923 53.2117 39.1923 52.8344 37.5748 52.7995ZM37.5329 54.5881C38.9023 54.6161 40.2578 54.934 41.505 55.5244L49.9243 59.4965C50.8955 59.9541 51.9715 60.1567 53.044 60.0799L55.0038 59.9401C55.7549 59.8877 56.4746 60.1393 57.0265 60.6528C57.575 61.1629 57.879 61.8616 57.879 62.6127V62.976C57.879 63.3288 57.6728 63.6502 57.3514 63.7935L54.7104 64.9778C52.7296 65.8686 50.4378 65.9175 48.4221 65.1105L43.912 63.3044C43.4509 63.1192 42.9303 63.3463 42.7487 63.8039C42.5635 64.2616 42.7871 64.7821 43.2482 64.9638L47.7583 66.7734C50.2247 67.7586 53.0265 67.6992 55.4475 66.6092L58.0851 65.4249C59.0458 64.9917 59.6676 64.031 59.6676 62.976L71.8704 59.8074C72.597 59.6222 73.3481 59.776 73.9385 60.2336C74.5324 60.6912 74.8713 61.383 74.8713 62.1375C74.8713 63.0354 74.3752 63.8494 73.5787 64.2616L54.5252 74.1412C52.7086 75.0844 50.5391 75.0774 48.726 74.1237L37.47 68.1953C36.3032 67.5804 35.0176 67.266 33.7215 67.266C33.0682 67.266 32.4149 67.3463 31.7721 67.507L25.8996 68.9743C25.6306 69.0442 25.3511 68.9848 25.1345 68.8136C24.9144 68.6424 24.7887 68.3839 24.7887 68.1044V56.7855C24.7887 56.3314 25.1275 55.9471 25.5782 55.8947L36.16 54.651C36.6176 54.5986 37.0753 54.5776 37.5329 54.5881Z" fill="white"/>
<path fill-rule="evenodd" clip-rule="evenodd" d="M47.3012 23.0035C44.7439 23.0035 42.1867 23.9747 40.2373 25.924C36.3421 29.8193 36.3421 36.1565 40.2373 40.0552L53.7432 53.5575C54.1344 53.9488 54.6515 54.1619 55.1999 54.1619C55.7519 54.1619 56.2724 53.9488 56.6637 53.5575L70.1556 40.0552C74.0508 36.1565 74.0508 29.8193 70.1556 25.924C66.2603 22.0253 59.9231 22.0253 56.0244 25.924L55.1964 26.752L54.3685 25.924C52.4191 23.9747 49.8619 23.0035 47.3012 23.0035ZM68.8909 27.1887C67.2944 25.5887 65.1913 24.7887 63.0917 24.7887C60.9921 24.7887 58.8891 25.5887 57.2925 27.1887L55.1964 29.2813L55.0008 29.4769C54.8296 29.6516 54.5991 29.7389 54.372 29.7389C54.1414 29.7389 53.9108 29.6516 53.7397 29.4769C53.3868 29.1276 53.3868 28.5616 53.7397 28.2123L53.9353 28.0201L53.1004 27.1887C51.5038 25.5887 49.4043 24.7922 47.3012 24.7922C45.2016 24.7922 43.102 25.5887 41.502 27.1887C38.302 30.3852 38.302 35.5905 41.502 38.7871L55.0078 52.2964C55.1406 52.4256 55.2663 52.4256 55.3956 52.2964L68.8909 38.7871C72.0909 35.5905 72.0909 30.3852 68.8909 27.1887Z" fill="white"/>
</svg>
