<svg width="100" height="100" viewBox="0 0 100 100" fill="none" xmlns="http://www.w3.org/2000/svg">
<rect width="100" height="100" fill="#3083FF"/>
<path fill-rule="evenodd" clip-rule="evenodd" d="M75.7004 23.2488C75.4528 23.023 75.1041 22.9511 74.7858 23.064L67.3198 25.5915C66.6553 25.1886 63.012 23.1051 57.6506 24.8294L57.6052 24.8396L55.9098 25.5812C55.8618 25.476 55.7936 25.381 55.7128 25.2989C53.9492 23.5079 51.4985 22.8151 49.2069 23.2231L37.0415 24.9602L32.7463 23.0923C32.4432 22.9434 32.0869 22.9768 31.814 23.1769C31.5412 23.3771 31.4022 23.7132 31.4452 24.0493C31.4881 24.3906 31.713 24.6754 32.0288 24.796L36.5564 26.7666C36.708 26.8333 36.8773 26.8564 37.0415 26.8333L49.4949 25.0603C49.5012 25.059 49.5063 25.0577 49.5113 25.0565C49.5164 25.0552 49.5214 25.0539 49.5278 25.0526C51.1347 24.7652 52.8325 25.2014 54.1337 26.3587L45.1518 30.2768L36.1067 30.6155L36.1244 31.5264C36.1244 31.5264 36.142 32.4732 36.1724 34.0641C36.2204 36.3246 37.8045 38.1387 39.8435 39.3319C41.8824 40.525 44.4519 41.1845 46.9305 41.1357C47.5267 41.1203 48.4514 40.9561 49.7728 40.7175C51.0968 40.4814 52.7112 40.1709 54.2752 39.8604C56.7299 39.3741 58.7594 38.9526 59.5658 38.7851L59.7948 38.7375L59.874 38.7212L74.4295 53.5034L74.4346 53.5085C75.8646 54.9659 75.8646 57.3009 74.4295 58.7583C72.9944 60.2158 70.6902 60.2158 69.2551 58.7583L67.9615 57.4446C67.6028 57.0905 67.0318 57.0956 66.678 57.4549C66.3243 57.8141 66.3193 58.394 66.6679 58.7583C68.103 60.2158 68.103 62.5559 66.6679 64.0133C65.2329 65.4707 62.9286 65.4707 61.4935 64.0133L60.8467 63.3564C60.488 63.0023 59.917 63.0075 59.5633 63.3667C59.2095 63.7259 59.2045 64.3058 59.5531 64.6702C60.9882 66.1276 60.9882 68.4677 59.5531 69.9252C58.3202 71.1773 56.448 71.339 55.0357 70.4435C54.7299 70.251 54.3434 70.2536 54.0452 70.4589C53.7471 70.659 53.5905 71.0182 53.6486 71.38C53.8052 72.3807 53.5197 73.4251 52.7618 74.1948C51.5035 75.4726 49.4924 75.4726 48.2342 74.1948L44.6768 70.582L46.6172 68.6114C48.3959 66.805 48.3959 63.8491 46.6172 62.0427C45.5333 60.9419 44.0451 60.5955 42.6328 60.8342C42.8677 59.3998 42.5267 57.8885 41.4428 56.7877C40.3589 55.687 38.8707 55.3406 37.4584 55.5792C37.6934 54.1448 37.3523 52.6335 36.2684 51.5328C35.1845 50.432 33.6963 50.0856 32.284 50.3242C32.519 48.8899 32.1779 47.3785 31.094 46.2778C29.3153 44.4714 26.4047 44.4714 24.626 46.2778L22.6856 48.2484L15.5708 41.0228C15.3409 40.7842 15.0023 40.6867 14.6814 40.7713C14.3631 40.8586 14.1155 41.11 14.0296 41.4333C13.9462 41.7592 14.0422 42.103 14.2772 42.3365L21.6674 49.8418C21.0307 51.5097 21.3667 53.4777 22.6856 54.8171C23.7695 55.9179 25.2576 56.2643 26.67 56.0257C26.435 57.46 26.7761 58.9713 27.86 60.0721C28.9439 61.1729 30.432 61.5193 31.8444 61.2806C31.6094 62.715 31.9505 64.2263 33.0344 65.3271C34.1183 66.4278 35.6064 66.7742 37.0188 66.5356C36.7838 67.9699 37.1249 69.4813 38.2088 70.582C39.5276 71.9214 41.4655 72.2627 43.1078 71.6161L46.9406 75.5086C48.8986 77.4971 52.0973 77.4971 54.0554 75.5086C54.8689 74.6823 55.215 73.6329 55.3515 72.5552C57.2363 73.1505 59.3586 72.7502 60.8467 71.2389C62.0898 69.9765 62.5219 68.2599 62.3147 66.6074C64.2374 67.2669 66.438 66.8743 67.9615 65.3271C69.0985 64.1724 69.5836 62.6329 69.5128 61.1138C71.5467 62.0915 74.043 61.7784 75.7231 60.0721C77.5625 58.2041 77.8126 55.3226 76.4861 53.1698L77.7115 52.5463C79.6519 51.561 80.986 49.7443 81.5645 47.6326L86.4812 45.1385C86.7465 45.0077 86.9335 44.7562 86.9865 44.4611C87.0371 44.1635 86.9436 43.8633 86.7364 43.6477C86.4534 43.3603 86.0189 43.2885 85.6626 43.4758L79.3538 46.6806L79.8212 47.1553C79.3791 48.7539 78.3684 50.1395 76.8904 50.8861L75.2582 51.7175L60.9352 37.1714C60.7179 36.8635 60.3414 36.7172 59.9827 36.8045C59.9827 36.8045 57.0443 37.4177 53.924 38.0361C52.3651 38.3466 50.7582 38.6545 49.457 38.888C48.1558 39.1215 47.0467 39.2729 46.8951 39.278C44.7677 39.319 42.461 38.7212 40.7581 37.7205C39.0552 36.7249 38.0319 35.4086 38.0041 34.0256C37.9968 33.6594 37.9918 33.3995 37.988 33.1977L37.9879 33.195C37.9811 32.8386 37.9777 32.6633 37.9713 32.4014L45.5585 32.1217L58.2141 26.5973C63.348 24.9551 66.8069 27.344 66.8069 27.344L67.1783 27.598L75.3669 24.8242C75.6777 24.7242 75.9151 24.4625 75.9834 24.1366C76.0516 23.8107 75.9455 23.472 75.7004 23.2488ZM29.8004 51.5328L27.86 53.5034C26.7811 54.599 25.058 54.599 23.9792 53.5034C22.9003 52.4077 22.9003 50.6578 23.9792 49.5621L25.9196 47.5915C26.9984 46.4959 28.7215 46.4959 29.8004 47.5915C30.8792 48.6872 30.8792 50.4371 29.8004 51.5328ZM31.094 52.8465C32.1728 51.7509 33.8959 51.7509 34.9748 52.8465C36.0536 53.9421 36.0536 55.6921 34.9748 56.7877C34.9631 56.7996 34.9527 56.8115 34.9426 56.823C34.9332 56.8339 34.9239 56.8445 34.9141 56.8544C34.8762 56.9032 34.8434 56.9571 34.8131 57.0135L33.1885 58.6377C33.1885 58.6377 33.0874 58.7045 33.0445 58.7481L33.0344 58.7583C31.9555 59.854 30.2324 59.854 29.1536 58.7583C28.0747 57.6627 28.0747 55.9128 29.1536 54.8171C29.3129 54.5634 30.5136 53.3977 31.094 52.8465ZM36.197 58.165L36.1901 58.1707L34.4417 59.9258C34.4417 59.9258 34.4063 59.9771 34.3886 60.0054C34.3788 60.0153 34.3696 60.0259 34.3601 60.0368C34.35 60.0483 34.3397 60.0602 34.328 60.0721C33.2491 61.1677 33.2491 62.9177 34.328 64.0133C35.4068 65.109 37.1299 65.109 38.2088 64.0133L38.2189 64.0031L40.1492 62.0427C41.228 60.9471 41.228 59.1971 40.1492 58.1015C39.0703 57.0058 37.3472 57.0058 36.2684 58.1015C36.2452 58.125 36.2221 58.1442 36.197 58.165ZM41.4418 63.3574L41.4428 63.3564C42.5216 62.2608 44.2447 62.2608 45.3236 63.3564C46.4024 64.4521 46.4024 66.202 45.3236 67.2977L43.3832 69.2683C42.3043 70.3639 40.5812 70.3639 39.5024 69.2683C38.4235 68.1726 38.4235 66.4227 39.5024 65.3271C39.5251 65.304 39.563 65.2603 39.563 65.2603L41.4418 63.3574Z" fill="white"/>
</svg>
