<svg width="64" height="64" viewBox="0 0 64 64" fill="none" xmlns="http://www.w3.org/2000/svg">
<g clip-path="url(#clip0_133_15899)">
<rect width="64" height="64" fill="#F4F9FF"/>
<path d="M64 0H0V64H64V0Z" fill="#F4F9FF"/>
<path d="M64 32C64 49.6731 49.6731 64 32 64C14.3269 64 0 49.6731 0 32C0 14.3269 14.3269 0 32 0C49.6731 0 64 14.3269 64 32Z" fill="#F4F9FF"/>
<path d="M14.359 16.8999C13.4527 16.8999 12.718 17.6345 12.718 18.5409V44.7973C12.718 45.7035 13.4527 46.4383 14.359 46.4383H48.8206C49.7269 46.4383 50.4616 45.7035 50.4616 44.7973V18.5409C50.4616 17.6345 49.7269 16.8999 48.8206 16.8999H14.359ZM13.7964 18.8144C13.7964 18.3612 14.1638 17.9938 14.6169 17.9938H48.5627C49.0159 17.9938 49.3832 18.3612 49.3832 18.8144V20.7801L33.1316 32.2717C32.2049 32.9276 30.9769 32.9276 30.0481 32.2717L13.7964 20.7801V18.8144ZM13.7964 22.1135L29.433 33.1691C30.7262 34.0857 32.4534 34.0836 33.7466 33.1691L49.3832 22.1135V44.5237C49.3832 44.9769 49.0159 45.3442 48.5627 45.3442H14.6169C14.1638 45.3442 13.7964 44.9769 13.7964 44.5237V22.1135Z" fill="#a44ffc"/>
<path fill-rule="evenodd" clip-rule="evenodd" d="M33.1314 32.2717L49.3831 20.7801V18.8144C49.3831 18.3612 49.0157 17.9938 48.5625 17.9938H14.6168C14.1636 17.9938 13.7963 18.3612 13.7963 18.8144V20.7801L30.0479 32.2717C30.9767 32.9276 32.2047 32.9276 33.1314 32.2717ZM30.2846 31.9365C31.0717 32.4924 32.1099 32.4921 32.8944 31.9367L48.9728 20.5678V18.8144C48.9728 18.5878 48.7892 18.4041 48.5625 18.4041H14.6168C14.3902 18.4041 14.2065 18.5878 14.2065 18.8144V20.5678L30.2846 31.9365ZM12.3076 44.7973V18.5409C12.3076 17.408 13.226 16.4896 14.3589 16.4896H48.8204C49.9533 16.4896 50.8717 17.408 50.8717 18.5409V44.7973C50.8717 45.9302 49.9533 46.8486 48.8204 46.8486H14.3589C13.226 46.8486 12.3076 45.9302 12.3076 44.7973ZM13.7963 22.1135V44.5237C13.7963 44.9769 14.1636 45.3442 14.6168 45.3442H48.5625C49.0157 45.3442 49.3831 44.9769 49.3831 44.5237V22.1135L33.7465 33.1691C32.4533 34.0836 30.7261 34.0857 29.4329 33.1691L13.7963 22.1135ZM14.2065 22.906V44.5237C14.2065 44.7504 14.3902 44.934 14.6168 44.934H48.5625C48.7892 44.934 48.9728 44.7504 48.9728 44.5237V22.906L33.9834 33.504C32.5485 34.5187 30.6314 34.5214 29.1957 33.5037L14.2065 22.906ZM12.7179 18.5409C12.7179 17.6345 13.4526 16.8998 14.3589 16.8998H48.8204C49.7268 16.8998 50.4615 17.6345 50.4615 18.5409V44.7973C50.4615 45.7036 49.7268 46.4383 48.8204 46.4383H14.3589C13.4526 46.4383 12.7179 45.7035 12.7179 44.7973V18.5409Z" fill="#a44ffc"/>
</g>
<defs>
<clipPath id="clip0_133_15899">
<rect width="64" height="64" fill="white"/>
</clipPath>
</defs>
</svg>
