<svg width="64" height="64" viewBox="0 0 64 64" fill="none" xmlns="http://www.w3.org/2000/svg">
<g clip-path="url(#clip0_133_15908)">
<g clip-path="url(#clip1_133_15908)">
<rect width="76" height="76" transform="translate(-6 -6)" fill="white"/>
<path d="M70 -6H-6V70H70V-6Z" fill="#F4F9FF"/>
<path d="M17.3359 16.264C14.4129 18.9922 13.877 19.9179 13.877 22.0127C13.877 24.9845 18.6026 32.9743 23.5718 38.3332C29.3693 44.6179 39.8436 51.0973 42.9616 50.3179C44.4718 49.9281 49.4898 45.3973 50.0257 43.9358C50.5616 42.4743 49.7334 40.7691 47.2 38.1871C42.8641 33.705 41.6462 33.6563 37.6513 37.7486L35.2641 40.2332L32.9744 39.064C30.1 37.6025 26.7385 34.2896 25.1795 31.3666L23.9616 29.0768L26.2026 26.7871C30.4411 22.4025 30.4411 21.282 25.9103 16.9461C21.9154 13.0973 20.7949 13.0486 17.3359 16.264ZM25.3257 18.3102C26.8846 19.9179 28.1026 21.5743 28.1026 22.0127C28.1026 22.4512 26.7872 24.205 25.1308 25.9102L22.159 29.0281L23.5231 31.5614C25.3744 34.923 29.2718 38.7717 32.5846 40.5255L35.3616 41.9384L38.4795 38.9179C40.818 36.6768 41.8898 35.9948 42.5718 36.1896C43.059 36.3845 44.618 37.6512 46.0308 39.0153C49.3923 42.2794 49.3923 43.2538 45.9334 46.5666C44.4718 47.9307 42.8154 49.0512 42.2795 49.0512C40.8667 49.0512 34.3872 45.5922 30.6359 42.8153C25.1795 38.723 21.2334 34.1922 17.5795 27.7127C14.6564 22.5973 14.6564 21.0871 17.677 17.8717C20.7949 14.5589 21.818 14.6076 25.3257 18.3102Z" fill="#a44ffc"/>
<path fill-rule="evenodd" clip-rule="evenodd" d="M17.0041 15.9072L17.0034 15.9079C15.545 17.2691 14.6314 18.2249 14.0922 19.1257C13.5326 20.0606 13.3896 20.9117 13.3896 22.0127C13.3896 22.8569 13.7176 23.988 14.2431 25.2502C14.775 26.5279 15.5327 27.9936 16.4418 29.5264C18.2597 32.5909 20.7034 35.9564 23.2141 38.664C26.1488 41.8452 30.2531 45.063 34.0152 47.389C35.8969 48.5524 37.7064 49.501 39.2529 50.1111C40.026 50.4161 40.7437 50.6406 41.3788 50.7628C42.0066 50.8839 42.5914 50.9126 43.0796 50.7905L43.0832 50.7896C43.3371 50.7242 43.6264 50.584 43.9211 50.4131C44.2229 50.2381 44.5594 50.0132 44.9135 49.7558C45.6218 49.241 46.421 48.5809 47.1855 47.8903C47.95 47.1998 48.6876 46.472 49.2712 45.8196C49.5628 45.4937 49.8203 45.1818 50.0248 44.8993C50.2243 44.6237 50.3927 44.3498 50.483 44.1036C50.8083 43.2164 50.6997 42.2843 50.2011 41.2672C49.7101 40.2656 48.827 39.1499 47.5489 37.8471C46.4629 36.7247 45.5494 35.8553 44.7268 35.2581C43.9024 34.6595 43.1267 34.3023 42.3197 34.2659C41.506 34.229 40.741 34.5213 39.9467 35.0564C39.1587 35.587 38.3043 36.3822 37.3026 37.4084L37.2999 37.4111L35.1634 39.6349L33.1958 38.6301C30.4125 37.2149 27.1223 33.9742 25.6093 31.1373L24.559 29.1629L26.5528 27.1258C27.6137 26.0282 28.4358 25.1087 28.9877 24.2793C29.5423 23.4457 29.8538 22.6596 29.8318 21.8354C29.8098 21.0124 29.4577 20.2335 28.857 19.4094C28.2586 18.5883 27.3816 17.6799 26.2473 16.5944C25.2457 15.6295 24.403 14.8816 23.6475 14.3623C22.8905 13.8418 22.1845 13.525 21.4587 13.4702C20.7238 13.4149 20.0352 13.6328 19.3247 14.0538C18.6232 14.4694 17.8728 15.0997 17.0041 15.9072ZM25.9102 16.9461C30.4409 21.282 30.4409 22.4025 26.2025 26.7871L23.9614 29.0768L25.1794 31.3666C26.7384 34.2896 30.0999 37.6025 32.9743 39.064L35.264 40.2332L37.6512 37.7486C41.6461 33.6563 42.864 33.705 47.1999 38.1871C49.7332 40.7691 50.5614 42.4743 50.0255 43.9358C49.4896 45.3973 44.4717 49.9281 42.9614 50.3179C39.8435 51.0973 29.3691 44.6179 23.5717 38.3332C18.6025 32.9743 13.8768 24.9845 13.8768 22.0127C13.8768 19.9179 14.4127 18.9922 17.3358 16.264C20.7948 13.0486 21.9153 13.0973 25.9102 16.9461ZM24.9758 18.6493C25.7427 19.4402 26.4229 20.2403 26.9081 20.8911C27.1513 21.2174 27.3397 21.4986 27.465 21.7173C27.5278 21.8271 27.57 21.913 27.5951 21.9755C27.6008 21.9896 27.6051 22.0011 27.6082 22.0103C27.6047 22.0199 27.6 22.0322 27.5937 22.0474C27.566 22.1131 27.5198 22.2036 27.4516 22.3193C27.3155 22.5497 27.1114 22.8469 26.8496 23.192C26.3273 23.8806 25.5976 24.7304 24.7813 25.5708L24.7781 25.5741L21.5624 28.9479L23.0962 31.7966C24.9925 35.2396 28.9583 39.1571 32.3566 40.9561L32.3636 40.9598L35.4506 42.5304L38.8165 39.2696C38.8168 39.2693 38.8172 39.269 38.8175 39.2687C39.9836 38.1512 40.8091 37.4471 41.4152 37.0469C42.0046 36.6576 42.2832 36.6263 42.4145 36.6525C42.4871 36.6868 42.627 36.7704 42.8377 36.9193C43.0625 37.0783 43.3379 37.2902 43.6462 37.5416C44.2622 38.044 44.9948 38.6925 45.692 39.3655C46.5292 40.1784 47.1301 40.8237 47.5201 41.3845C47.9072 41.9413 48.057 42.3736 48.0526 42.7672C48.048 43.162 47.8872 43.5997 47.4838 44.1652C47.0786 44.7333 46.4591 45.3883 45.5985 46.2126C44.885 46.8784 44.126 47.4826 43.4855 47.9174C43.1644 48.1355 42.881 48.3054 42.6535 48.4188C42.5397 48.4755 42.4471 48.5145 42.3757 48.5385C42.3074 48.5614 42.2779 48.5637 42.2779 48.564C42.2779 48.564 42.2784 48.564 42.2794 48.564C42.1805 48.564 41.9836 48.5294 41.6728 48.4322C41.3738 48.3387 41.0061 48.1993 40.5823 48.0191C39.7351 47.6589 38.6893 47.1468 37.5644 46.545C35.3136 45.341 32.778 43.7948 30.9268 42.4246C25.5285 38.3756 21.6264 33.8976 18.0037 27.4734L18.0025 27.4711C16.5325 24.8988 15.8755 23.3523 15.8864 22.084C15.897 20.8635 16.5326 19.8014 18.0319 18.2053C18.8078 17.381 19.4263 16.7958 19.9693 16.424C20.5053 16.057 20.9294 15.9242 21.3278 15.9467C21.7349 15.9695 22.1976 16.1588 22.7987 16.605C23.4005 17.0517 24.0979 17.7226 24.9719 18.6452L24.9758 18.6493ZM17.6768 17.8717C14.6563 21.0871 14.6563 22.5973 17.5794 27.7127C21.2332 34.1922 25.1794 38.723 30.6358 42.8153C34.3871 45.5922 40.8666 49.0512 42.2794 49.0512C42.8153 49.0512 44.4717 47.9307 45.9332 46.5666C49.3922 43.2538 49.3922 42.2794 46.0307 39.0153C44.6179 37.6512 43.0589 36.3845 42.5717 36.1896C41.8896 35.9948 40.8179 36.6768 38.4794 38.9179L35.3614 41.9384L32.5845 40.5255C29.2717 38.7717 25.3743 34.923 23.523 31.5614L22.1589 29.0281L25.1307 25.9102C26.7871 24.205 28.1025 22.4512 28.1025 22.0127C28.1025 21.5743 26.8845 19.9179 25.3255 18.3102C21.8179 14.6076 20.7948 14.5589 17.6768 17.8717Z" fill="#a44ffc"/>
</g>
</g>
<defs>
<clipPath id="clip0_133_15908">
<rect width="64" height="64" fill="white"/>
</clipPath>
<clipPath id="clip1_133_15908">
<rect width="76" height="76" fill="white" transform="translate(-6 -6)"/>
</clipPath>
</defs>
</svg>
