<svg width="49" height="49" viewBox="0 0 49 49" fill="none" xmlns="http://www.w3.org/2000/svg">
<path fill-rule="evenodd" clip-rule="evenodd" d="M5.5716 2.07208C6.7398 0.905341 8.32334 0.25 9.97438 0.25C11.6254 0.25 13.209 0.905341 14.3772 2.07208L14.3796 2.07449L20.5235 8.22594C20.5239 8.22639 20.5244 8.22684 20.5248 8.2273C21.103 8.80514 21.5618 9.4912 21.8748 10.2463C22.1881 11.002 22.3494 11.8121 22.3494 12.6302C22.3494 13.4483 22.1881 14.2583 21.8748 15.0141C21.562 15.7687 21.1036 16.4544 20.5259 17.032C20.3891 17.169 20.3123 17.3546 20.3123 17.5482C20.3123 17.7417 20.3891 17.9274 20.5259 18.0643L30.3637 27.904C30.431 27.9714 30.511 28.0249 30.599 28.0614C30.6869 28.0978 30.7813 28.1166 30.8765 28.1166C30.9718 28.1166 31.0661 28.0978 31.1541 28.0614C31.242 28.0249 31.322 27.9714 31.3893 27.904L31.3917 27.9016C32.5599 26.7349 34.1434 26.0795 35.7945 26.0795C37.4455 26.0795 39.0291 26.7349 40.1973 27.9016L46.3479 34.0485C47.5146 35.2166 48.17 36.8002 48.17 38.4512C48.17 40.1023 47.5146 41.6858 46.3479 42.854L44.8874 44.3145C44.8874 44.3145 44.8874 44.3145 44.8874 44.3145C42.7664 46.4356 39.9853 47.7699 37.0035 48.0969C34.039 48.422 31.0525 47.7323 28.5314 46.1413C28.4873 46.1149 28.444 46.0874 28.4015 46.0587C18.1384 39.1224 9.3006 30.2826 2.36662 20.018L2.35727 20.004L2.34219 19.9814C2.33126 19.965 2.3205 19.9485 2.30993 19.9319C0.700216 17.4012 0.00140623 14.3973 0.32882 11.4159C0.656234 8.43452 1.9903 5.65386 4.11088 3.5328L5.5716 2.07208ZM9.45825 5.9636C9.45812 5.96372 9.45837 5.96348 9.45825 5.9636L8.00042 7.42143C8.00034 7.4215 8.00049 7.42135 8.00042 7.42143C6.76452 8.65772 5.98678 10.2786 5.79595 12.0163C5.6062 13.7442 6.00781 15.485 6.9347 16.9548C13.4603 26.6106 21.7723 34.9291 31.4226 41.4621C31.4287 41.466 31.4348 41.4698 31.4409 41.4737C32.9155 42.4125 34.6662 42.8203 36.4038 42.6297C38.1415 42.4391 39.7622 41.6616 40.9983 40.4255L42.4564 38.9674C42.5931 38.8304 42.67 38.6448 42.67 38.4512C42.67 38.2579 42.5933 38.0724 42.4568 37.9355C42.4566 37.9354 42.4569 37.9357 42.4568 37.9355L36.3106 31.7931C36.1737 31.6564 35.988 31.5795 35.7945 31.5795C35.6009 31.5795 35.4153 31.6564 35.2783 31.7931C34.7007 32.3708 34.015 32.8292 33.2604 33.142C32.5047 33.4553 31.6946 33.6166 30.8765 33.6166C30.0584 33.6166 29.2484 33.4553 28.4926 33.142C27.7374 32.8289 27.0512 32.3701 26.4733 31.7917C26.4729 31.7914 26.4726 31.791 26.4722 31.7907L16.6344 21.951C15.4676 20.7828 14.8123 19.1992 14.8123 17.5482C14.8123 15.8971 15.4676 14.3136 16.6344 13.1454L16.6368 13.143C16.7042 13.0757 16.7576 12.9957 16.7941 12.9077C16.8306 12.8198 16.8494 12.7254 16.8494 12.6302C16.8494 12.5349 16.8306 12.4406 16.7941 12.3526C16.7576 12.2647 16.7042 12.1847 16.6368 12.1174L10.4905 5.9636C10.4903 5.96337 10.4908 5.96384 10.4905 5.9636C10.3536 5.82727 10.1676 5.75 9.97438 5.75C9.781 5.75 9.59516 5.82705 9.45825 5.9636Z" fill="white"/>
</svg>
